<svg width="1512" height="774" viewBox="0 0 1512 774" fill="none" xmlns="http://www.w3.org/2000/svg">
<path d="M1349 608.85C1348.74 601.249 1410.5 548.35 1410.5 456.35C1411.68 459.912 1396.5 289.35 1323 264.85C1323 264.85 1129.5 138.627 1253 288.627C1614.5 607.627 1400 -30.65 1171.5 64.85M1333 274.85C1333 274.85 1069 195.35 1192.5 345.35" stroke="#FFCC00" stroke-width="2"/>
<path d="M107.502 54.9999C107.379 62.6044 42.0014 151 45.5014 244.5C46.1026 260.559 72.8469 453.279 145 481.5C145 481.5 317.833 576.796 202.154 420.684C-142.585 83.6405 60.9213 849.207 294 765.5" stroke="#FFCC00" stroke-width="2"/>
<path d="M211.444 174.283L207.894 193.814L222.938 203.735L205.699 205.885L202.149 225.416L195.045 207.213L177.806 209.363L190.655 195.963L183.551 177.761L198.595 187.682L211.444 174.283Z" fill="#FFCC00"/>
<path d="M446.444 14.2826L442.894 33.8137L457.938 43.7348L440.699 45.8846L437.149 65.4157L430.045 47.2132L412.806 49.363L425.655 35.9635L418.551 17.761L433.595 27.6821L446.444 14.2826Z" fill="#FFCC00"/>
<path d="M870.784 344.253L868.953 353.945L876.253 358.759L867.822 359.936L865.992 369.628L862.612 360.663L854.181 361.84L860.523 355.122L857.142 346.157L864.442 350.97L870.784 344.253Z" fill="#FFCC00"/>
<path d="M1228.88 130.253L1227.05 139.945L1234.35 144.759L1225.92 145.936L1224.09 155.628L1220.71 146.663L1212.27 147.84L1218.62 141.122L1215.24 132.157L1222.54 136.97L1228.88 130.253Z" fill="#FFCC00"/>
<path d="M181.711 361.895L176.701 389.455L197.93 403.454L173.605 406.487L168.595 434.047L158.571 408.362L134.246 411.395L152.376 392.488L142.352 366.804L163.581 380.803L181.711 361.895Z" fill="#000080"/>
<path d="M181.711 364.895L176.701 392.455L197.93 406.454L173.605 409.487L168.595 437.047L158.571 411.362L134.246 414.395L152.376 395.488L142.352 369.804L163.581 383.803L181.711 364.895Z" fill="#FFCC00"/>
<path d="M1414.35 385.033L1364.73 390.237L1385.46 340.137L1414.35 385.033Z" fill="#000080"/>
<path d="M1411.62 381.524L1362 386.728L1382.73 336.627L1411.62 381.524Z" fill="#FFCC00"/>
<path d="M1418.9 182.627C1416.38 182.627 1415.12 184.838 1416.69 189.627C1418.58 188.276 1421.67 184.985 1418.9 182.627Z" fill="#FFCC00"/>
<path d="M1403.99 194.194C1400.88 193.702 1398.88 196.262 1399.86 202.652C1402.46 201.306 1406.93 197.731 1403.99 194.194Z" fill="#FFCC00"/>
<path d="M1415.99 161.194C1412.88 160.702 1410.88 163.262 1411.86 169.652C1414.46 168.306 1418.93 164.731 1415.99 161.194Z" fill="#FFCC00"/>
<path d="M1399.99 176.194C1396.88 175.702 1394.88 178.262 1395.86 184.652C1398.46 183.306 1402.93 179.731 1399.99 176.194Z" fill="#FFCC00"/>
<path d="M1434.99 163.194C1431.88 162.702 1429.88 165.262 1430.86 171.652C1433.46 170.306 1437.93 166.731 1434.99 163.194Z" fill="#FFCC00"/>
<path d="M1412.34 210.338C1414.8 210.902 1416.52 209.029 1416.06 204.009C1413.92 204.903 1410.17 207.419 1412.34 210.338Z" fill="#FFCC00"/>
<path d="M1399.08 227.697C1401.53 228.261 1403.25 226.389 1402.79 221.369C1400.65 222.262 1396.91 224.779 1399.08 227.697Z" fill="#FFCC00"/>
<path d="M1418.08 230.697C1420.53 231.261 1422.25 229.389 1421.79 224.369C1419.65 225.262 1415.91 227.779 1418.08 230.697Z" fill="#FFCC00"/>
<path d="M1400.08 252.697C1402.53 253.261 1404.25 251.389 1403.79 246.369C1401.65 247.262 1397.91 249.779 1400.08 252.697Z" fill="#FFCC00"/>
<path d="M1424.14 247.158C1421.65 246.785 1420.08 248.785 1420.92 253.754C1422.99 252.698 1426.53 249.899 1424.14 247.158Z" fill="#FFCC00"/>
<path d="M1384.9 237.056C1382.42 236.683 1380.84 238.683 1381.69 243.653C1383.76 242.596 1387.29 239.798 1384.9 237.056Z" fill="#FFCC00"/>
<path d="M1384.9 213.056C1382.42 212.683 1380.84 214.683 1381.69 219.653C1383.76 218.596 1387.29 215.798 1384.9 213.056Z" fill="#FFCC00"/>
<path d="M1381.9 190.056C1379.42 189.683 1377.84 191.683 1378.69 196.653C1380.76 195.596 1384.29 192.798 1381.9 190.056Z" fill="#FFCC00"/>
<path d="M171.369 313.611C173.706 314.544 175.695 312.957 176.01 307.926C173.756 308.481 169.672 310.394 171.369 313.611Z" fill="#FFCC00"/>
<path d="M189.506 308.396C192.209 310.006 195.014 308.369 196.476 302.072C193.56 302.357 188.084 304.021 189.506 308.396Z" fill="#FFCC00"/>
<path d="M166.126 334.595C168.829 336.205 171.634 334.568 173.096 328.271C170.18 328.556 164.704 330.22 166.126 334.595Z" fill="#FFCC00"/>
<path d="M186.547 326.596C189.25 328.206 192.056 326.569 193.517 320.272C190.602 320.557 185.125 322.221 186.547 326.596Z" fill="#FFCC00"/>
<path d="M149.222 325.693C151.924 327.303 154.73 325.666 156.192 319.369C153.276 319.654 147.8 321.318 149.222 325.693Z" fill="#FFCC00"/>
<path d="M187.73 290.305C185.661 288.872 183.368 289.972 181.934 294.805C184.254 294.77 188.663 293.82 187.73 290.305Z" fill="#FFCC00"/>
<path d="M206.486 279.101C204.418 277.668 202.124 278.769 200.69 283.601C203.011 283.566 207.419 282.616 206.486 279.101Z" fill="#FFCC00"/>
<path d="M189.953 269.271C187.884 267.837 185.591 268.938 184.156 273.771C186.477 273.735 190.885 272.785 189.953 269.271Z" fill="#FFCC00"/>
<path d="M214.826 255.512C212.757 254.079 210.464 255.18 209.03 260.012C211.351 259.977 215.759 259.027 214.826 255.512Z" fill="#FFCC00"/>
<path d="M190.426 251.736C192.6 253.005 194.801 251.73 195.857 246.801C193.546 247.016 189.225 248.304 190.426 251.736Z" fill="#FFCC00"/>
<path d="M223.119 275.664C225.293 276.933 227.494 275.658 228.55 270.729C226.239 270.944 221.917 272.232 223.119 275.664Z" fill="#FFCC00"/>
<path d="M214.221 297.954C216.395 299.222 218.596 297.948 219.652 293.019C217.341 293.234 213.02 294.522 214.221 297.954Z" fill="#FFCC00"/>
<path d="M208.48 320.427C210.654 321.695 212.855 320.421 213.911 315.492C211.6 315.707 207.278 316.995 208.48 320.427Z" fill="#FFCC00"/>
<path d="M745.999 337.627L766.386 204.127L781.504 105.127L760.43 243.127L735.004 409.627L745.999 337.627Z" fill="#D9D9D9"/>
<path d="M1482.71 458.268L1477.7 485.827L1498.93 499.827L1474.6 502.86L1469.59 530.419L1459.57 504.735L1435.24 507.768L1453.37 488.861L1443.35 463.176L1464.58 477.175L1482.71 458.268Z" fill="#000080"/>
<path d="M1482.71 461.268L1477.7 488.827L1498.93 502.827L1474.6 505.86L1469.59 533.419L1459.57 507.735L1435.24 510.768L1453.37 491.861L1443.35 466.176L1464.58 480.175L1482.71 461.268Z" fill="#FFCC00"/>
<path d="M1482.71 458.268L1477.7 485.827L1498.93 499.827L1474.6 502.86L1469.59 530.419L1459.57 504.735L1435.24 507.768L1453.37 488.861L1443.35 463.176L1464.58 477.175L1482.71 458.268Z" fill="#000080"/>
<path d="M1484 550L1488.79 561.67L1499.68 561.67L1491.74 568.882L1496.53 580.552L1486.84 573.34L1478.9 580.552L1480.85 568.882L1471.15 561.67L1482.05 561.67L1484 550Z" fill="#FFCC00"/>
<path d="M1488 579L1491.51 587.558H1499.5L1493.68 592.847L1497.19 601.405L1490.08 596.116L1484.26 601.405L1485.69 592.847L1478.58 587.558H1486.57L1488 579Z" fill="#FFCC00"/>
<path d="M1490 600L1492.23 605.446H1497.32L1493.61 608.812L1495.85 614.258L1491.32 610.892L1487.62 614.258L1488.53 608.812L1484 605.446H1489.09L1490 600Z" fill="#FFCC00"/>
<path d="M1479 519L1484.74 533.002H1497.82L1488.29 541.656L1494.03 555.658L1482.4 547.005L1472.87 555.658L1475.21 541.656L1463.58 533.002H1476.66L1479 519Z" fill="#FFCC00"/>
</svg>
