<svg width="1436" height="742" viewBox="0 0 1436 742" fill="none" xmlns="http://www.w3.org/2000/svg">
<path d="M1337 555.723C1336.73 548.122 1398.5 495.223 1398.5 403.223C1399.67 406.785 1384.5 236.223 1311 211.723C1311 211.723 1117.5 85.4996 1241 235.5C1602.5 554.5 1388 -83.7775 1159.5 11.7226M1321 221.723C1321 221.723 1057 142.222 1180.5 292.223" stroke="#FFCC00" stroke-width="2"/>
<path d="M190.398 741.35C190.131 733.749 251.898 680.85 251.898 588.85C253.071 592.412 237.898 421.85 164.398 397.35C164.398 397.35 -29.1025 271.127 94.3975 421.127C455.898 740.127 241.398 101.85 12.8975 197.35M174.398 407.35C174.398 407.35 -89.6025 327.85 33.8975 477.85" stroke="#FFCC00" stroke-width="2"/>
</svg>
