<svg width="1512" height="796" viewBox="0 0 1512 796" fill="none" xmlns="http://www.w3.org/2000/svg">
<path d="M1356.94 630.222C1356.68 622.622 1418.44 569.723 1418.44 477.723C1419.62 481.285 1408 139.5 1296.5 175M1296.5 175C1296.5 175 1173 170.499 1296.5 320.5C1658 639.5 1413 -26.5 1184.5 69M1296.5 175C1296.5 175 1039.5 11.4996 1163 161.5" stroke="#FFCC00" stroke-width="2"/>
<path d="M210.094 1.00027C209.972 8.60481 62.5001 116.5 53.4415 265.873C52.4687 281.914 4.99999 552.5 110 585C110 585 362.437 591 210.094 442.058C-134.646 105.014 68.8613 870.58 301.94 786.873" stroke="#FFCC00" stroke-width="2"/>
<path d="M219.384 195.655L215.834 215.186L230.878 225.107L213.639 227.257L210.089 246.788L202.985 228.586L185.746 230.736L198.595 217.336L191.491 199.134L206.535 209.055L219.384 195.655Z" fill="#FFCC00"/>
<path d="M454.384 35.6553L450.834 55.1864L465.878 65.1075L448.639 67.2573L445.089 86.7884L437.985 68.5859L420.746 70.7357L433.595 57.3361L426.491 39.1336L441.535 49.0548L454.384 35.6553Z" fill="#FFCC00"/>
<path d="M878.724 365.625L876.893 375.318L884.193 380.132L875.762 381.308L873.932 391.001L870.552 382.036L862.121 383.212L868.463 376.495L865.082 367.529L872.382 372.343L878.724 365.625Z" fill="#FFCC00"/>
<path d="M1236.82 151.625L1234.99 161.318L1242.29 166.132L1233.86 167.308L1232.03 177.001L1228.65 168.036L1220.21 169.212L1226.56 162.495L1223.18 153.529L1230.48 158.343L1236.82 151.625Z" fill="#FFCC00"/>
<path d="M189.65 383.268L184.641 410.827L205.869 424.827L181.544 427.86L176.535 455.419L166.511 429.735L142.186 432.768L160.316 413.861L150.292 388.176L171.521 402.175L189.65 383.268Z" fill="#000080"/>
<path d="M189.65 386.268L184.641 413.827L205.869 427.827L181.544 430.86L176.535 458.419L166.511 432.735L142.186 435.768L160.316 416.861L150.292 391.176L171.521 405.175L189.65 386.268Z" fill="#FFCC00"/>
<path d="M1422.29 406.406L1372.67 411.61L1393.4 361.509L1422.29 406.406Z" fill="#000080"/>
<path d="M1419.56 402.896L1369.94 408.1L1390.67 358L1419.56 402.896Z" fill="#FFCC00"/>
<path d="M194.613 130.896L145 136.1L165.73 86L194.613 130.896Z" fill="#FFCC00"/>
<path d="M1426.84 204C1424.32 204 1423.06 206.211 1424.64 211C1426.52 209.649 1429.61 206.358 1426.84 204Z" fill="#FFCC00"/>
<path d="M1411.93 215.567C1408.82 215.074 1406.82 217.635 1407.8 224.025C1410.4 222.679 1414.87 219.103 1411.93 215.567Z" fill="#FFCC00"/>
<path d="M1423.93 182.567C1420.82 182.074 1418.82 184.635 1419.8 191.025C1422.4 189.679 1426.87 186.103 1423.93 182.567Z" fill="#FFCC00"/>
<path d="M1407.93 197.567C1404.82 197.074 1402.82 199.635 1403.8 206.025C1406.4 204.679 1410.87 201.103 1407.93 197.567Z" fill="#FFCC00"/>
<path d="M1442.93 184.567C1439.82 184.074 1437.82 186.635 1438.8 193.025C1441.4 191.679 1445.87 188.103 1442.93 184.567Z" fill="#FFCC00"/>
<path d="M1420.28 231.71C1422.74 232.274 1424.46 230.402 1424 225.382C1421.86 226.275 1418.11 228.792 1420.28 231.71Z" fill="#FFCC00"/>
<path d="M1407.02 249.07C1409.47 249.634 1411.19 247.761 1410.73 242.741C1408.59 243.635 1404.85 246.151 1407.02 249.07Z" fill="#FFCC00"/>
<path d="M1426.02 252.07C1428.47 252.634 1430.19 250.761 1429.73 245.741C1427.59 246.635 1423.85 249.151 1426.02 252.07Z" fill="#FFCC00"/>
<path d="M1408.02 274.07C1410.47 274.634 1412.19 272.761 1411.73 267.741C1409.59 268.635 1405.85 271.151 1408.02 274.07Z" fill="#FFCC00"/>
<path d="M1432.08 268.53C1429.59 268.158 1428.02 270.158 1428.86 275.127C1430.93 274.071 1434.47 271.272 1432.08 268.53Z" fill="#FFCC00"/>
<path d="M1392.84 258.429C1390.36 258.056 1388.78 260.056 1389.63 265.026C1391.7 263.969 1395.23 261.171 1392.84 258.429Z" fill="#FFCC00"/>
<path d="M1392.84 234.429C1390.36 234.056 1388.78 236.056 1389.63 241.026C1391.7 239.969 1395.23 237.171 1392.84 234.429Z" fill="#FFCC00"/>
<path d="M1389.84 211.429C1387.36 211.056 1385.78 213.056 1386.63 218.026C1388.7 216.969 1392.23 214.171 1389.84 211.429Z" fill="#FFCC00"/>
<path d="M179.309 334.983C181.646 335.916 183.635 334.33 183.95 329.299C181.696 329.853 177.612 331.767 179.309 334.983Z" fill="#FFCC00"/>
<path d="M197.446 329.769C200.148 331.378 202.954 329.741 204.416 323.445C201.5 323.73 196.024 325.393 197.446 329.769Z" fill="#FFCC00"/>
<path d="M174.066 355.968C176.769 357.577 179.574 355.94 181.036 349.644C178.12 349.929 172.644 351.592 174.066 355.968Z" fill="#FFCC00"/>
<path d="M194.487 347.969C197.19 349.579 199.996 347.942 201.457 341.645C198.542 341.93 193.065 343.594 194.487 347.969Z" fill="#FFCC00"/>
<path d="M157.162 347.066C159.864 348.676 162.67 347.039 164.132 340.742C161.216 341.027 155.74 342.691 157.162 347.066Z" fill="#FFCC00"/>
<path d="M195.67 311.678C193.601 310.245 191.308 311.345 189.873 316.178C192.194 316.142 196.603 315.192 195.67 311.678Z" fill="#FFCC00"/>
<path d="M214.426 300.474C212.358 299.041 210.064 300.141 208.63 304.974C210.951 304.938 215.359 303.989 214.426 300.474Z" fill="#FFCC00"/>
<path d="M197.893 290.643C195.824 289.21 193.531 290.311 192.096 295.143C194.417 295.108 198.825 294.158 197.893 290.643Z" fill="#FFCC00"/>
<path d="M222.766 276.885C220.697 275.452 218.404 276.552 216.97 281.385C219.29 281.349 223.699 280.4 222.766 276.885Z" fill="#FFCC00"/>
<path d="M198.366 273.109C200.54 274.378 202.741 273.103 203.797 268.174C201.486 268.389 197.165 269.677 198.366 273.109Z" fill="#FFCC00"/>
<path d="M231.059 297.037C233.233 298.306 235.434 297.031 236.49 292.102C234.179 292.317 229.857 293.605 231.059 297.037Z" fill="#FFCC00"/>
<path d="M222.161 319.326C224.335 320.595 226.536 319.321 227.592 314.391C225.281 314.606 220.959 315.894 222.161 319.326Z" fill="#FFCC00"/>
<path d="M216.42 341.799C218.593 343.068 220.795 341.794 221.851 336.864C219.54 337.079 215.218 338.367 216.42 341.799Z" fill="#FFCC00"/>
<path d="M7.36532 157.983C9.70257 158.916 11.6908 157.33 12.0057 152.299C9.75191 152.853 5.66851 154.767 7.36532 157.983Z" fill="#FFCC00"/>
<path d="M25.5019 152.769C28.2046 154.378 31.0103 152.741 32.472 146.445C29.5562 146.73 24.08 148.393 25.5019 152.769Z" fill="#FFCC00"/>
<path d="M2.122 178.968C4.82475 180.577 7.63039 178.94 9.09208 172.644C6.17628 172.929 0.700143 174.592 2.122 178.968Z" fill="#FFCC00"/>
<path d="M22.5434 170.969C25.2461 172.579 28.0518 170.942 29.5135 164.645C26.5977 164.93 21.1215 166.594 22.5434 170.969Z" fill="#FFCC00"/>
<path d="M23.726 134.678C21.6574 133.245 19.3642 134.345 17.9296 139.178C20.2504 139.142 24.6589 138.192 23.726 134.678Z" fill="#FFCC00"/>
<path d="M42.4824 123.474C40.4137 122.041 38.1205 123.141 36.686 127.974C39.0068 127.938 43.4152 126.988 42.4824 123.474Z" fill="#FFCC00"/>
<path d="M25.9487 113.643C23.88 112.21 21.5868 113.311 20.1523 118.143C22.4731 118.108 26.8815 117.158 25.9487 113.643Z" fill="#FFCC00"/>
<path d="M50.8222 99.8848C48.7536 98.4517 46.4604 99.5522 45.0258 104.385C47.3466 104.349 51.7551 103.399 50.8222 99.8848Z" fill="#FFCC00"/>
<path d="M26.4226 96.1087C28.5959 97.3775 30.7971 96.1029 31.8536 91.1737C29.5424 91.3887 25.2207 92.6767 26.4226 96.1087Z" fill="#FFCC00"/>
<path d="M59.1155 120.037C61.2888 121.306 63.49 120.031 64.5464 115.102C62.2353 115.317 57.9136 116.605 59.1155 120.037Z" fill="#FFCC00"/>
<path d="M50.2175 142.326C52.3908 143.595 54.592 142.32 55.6485 137.391C53.3374 137.606 49.0156 138.894 50.2175 142.326Z" fill="#FFCC00"/>
<path d="M44.4763 164.799C46.6496 166.068 48.8508 164.794 49.9073 159.864C47.5962 160.079 43.2744 161.367 44.4763 164.799Z" fill="#FFCC00"/>
<path d="M753.939 359L774.326 225.5L789.444 126.5L768.37 264.5L742.944 431L753.939 359Z" fill="#D9D9D9"/>
<path d="M1490.65 479.641L1485.64 507.2L1506.87 521.199L1482.54 524.233L1477.53 551.792L1467.51 526.107L1443.18 529.141L1461.31 510.233L1451.29 484.549L1472.52 498.548L1490.65 479.641Z" fill="#000080"/>
<path d="M1490.65 482.641L1485.64 510.2L1506.87 524.199L1482.54 527.233L1477.53 554.792L1467.51 529.107L1443.18 532.141L1461.31 513.233L1451.29 487.549L1472.52 501.548L1490.65 482.641Z" fill="#FFCC00"/>
<path d="M1490.65 479.641L1485.64 507.2L1506.87 521.199L1482.54 524.233L1477.53 551.792L1467.51 526.107L1443.18 529.141L1461.31 510.233L1451.29 484.549L1472.52 498.548L1490.65 479.641Z" fill="#000080"/>
<path d="M1491.94 571.373L1496.73 583.043L1507.62 583.043L1499.68 590.255L1504.47 601.925L1494.78 594.713L1486.84 601.925L1488.79 590.255L1479.09 583.043L1489.99 583.043L1491.94 571.373Z" fill="#FFCC00"/>
<path d="M1495.94 600.373L1499.45 608.931H1507.44L1501.62 614.22L1505.13 622.778L1498.02 617.489L1492.2 622.778L1493.63 614.22L1486.52 608.931H1494.51L1495.94 600.373Z" fill="#FFCC00"/>
<path d="M1497.94 621.373L1500.17 626.819H1505.26L1501.55 630.184L1503.79 635.63L1499.26 632.265L1495.56 635.63L1496.47 630.184L1491.94 626.819H1497.03L1497.94 621.373Z" fill="#FFCC00"/>
<path d="M1486.94 540.373L1492.68 554.375H1505.76L1496.23 563.029L1501.97 577.031L1490.34 568.377L1480.81 577.031L1483.15 563.029L1471.52 554.375H1484.6L1486.94 540.373Z" fill="#FFCC00"/>
</svg>
