<svg width="1280" height="422" viewBox="0 0 1280 422" fill="none" xmlns="http://www.w3.org/2000/svg">
<path d="M-4.02364 427.5C-4.02351 391.614 -14.257 15.2874 -4.02369 12.2279C-5.72924 15.2737 4.30552 10.4317 11.9704 15.1519C21.4669 21 21.2299 10.1064 31.4632 6.11391C29.7831 7.60053 41.4175 14.3291 51.5469 13.0874C51.1579 12.0698 54.2741 4.7848 63.4513 4.7848C64.1907 4.7848 64.7437 4.7726 65.1477 4.75507C65.9265 4.51612 66.8322 4.68197 65.1477 4.75507C63.9669 5.11734 63.0776 6.41006 71.9482 10.3671C82.0784 14.886 77.946 11.6092 81.4447 15.1519C84.0742 17.8145 92.9402 15.8928 103.174 13.0253C101.468 15.5224 97.7016 26.1552 107.935 23.6582C106.229 25.8808 118.523 15.248 128.757 13.0253C127.051 14.4248 131.315 14.4248 141.548 13.0253C139.843 14.3973 139.39 17.5872 149.623 16.2152C147.918 20.2077 152.181 20.2077 162.415 16.2152C160.709 20.3174 169.69 17.1276 179.923 13.0253C178.218 15.1931 193.166 10.9399 203.4 8.77213C201.694 10.295 195.273 14.5482 205.506 13.0253C203.801 17.2785 226.391 2.65825 238.886 1.59496C241.94 1.33511 220.856 14.3973 231.09 13.0253C229.384 14.6443 233.648 14.6443 243.881 13.0253C242.177 14.9443 246.431 14.9461 256.643 13.0309C257.81 10.752 261.755 4.37297 268.875 1.59496C267.17 3.17275 272.023 14.6031 282.256 13.0253C280.551 14.4659 284.814 14.4659 295.048 13.0253C293.342 16.8257 296.365 16.7468 307.839 13.0253C314.648 10.8169 306.362 17.8101 311.859 21.5317C315.689 24.1238 310.398 15.663 320.631 12.4937C318.925 13.9754 342.611 9.98809 352.844 8.50634C351.139 11.6345 349.845 22.0633 359.006 13.0253C361.88 10.1898 364.843 13.8068 374.083 11.2693C369.616 8.99761 366.535 5.75107 371.797 3.98736C370.092 7.9524 399.939 16.9904 410.172 13.0253C408.467 16.3867 375.744 28.8804 385.977 25.519C384.272 29.0999 425.318 8.77218 438.813 13.0253C441.951 14.0144 438.314 14.7403 448.547 13.0253C446.842 15.2342 457.069 10.981 467.302 8.77213C465.596 11.324 463.897 15.5772 474.13 13.0253C472.425 14.7678 476.689 14.7678 486.922 13.0253C485.216 14.7266 489.48 14.7266 499.714 13.0253C498.008 16.0986 520.782 17.5443 519.783 12.4936C519.401 10.5642 504.554 9.96227 513.285 6.64556C516.784 5.31644 535.04 12.2021 545.273 8.77213C543.568 11.5435 537.276 23.924 550.88 13.0253C552.711 11.5584 553.439 14.5345 563.672 13.0253C561.966 15.1245 600.753 21 576.464 13.0253C570.362 11.022 577.73 7.69166 587.963 3.9873C586.257 5.96296 601.874 17.8101 604.161 12.4936C605.866 8.52858 604.014 15.3954 614.248 11.4304C612.542 15.2445 617.396 16.8395 627.63 13.0253C625.924 15.7693 648.235 20.7342 644.736 17.0126C642.908 15.0682 638.002 11.5453 648.235 9.5696C646.529 12.2038 673.226 18.0759 662.73 10.6329C660.703 9.19593 687.226 4.49913 685.721 10.1012C683.722 17.5443 692.981 10.6432 703.215 6.91138C701.509 10.1081 694.146 16.2221 704.38 13.0253C702.674 16.126 706.938 16.126 717.171 13.0253C715.466 16.8806 719.729 16.8806 729.963 13.0253C728.257 15.1794 732.521 15.1794 742.754 13.0253C741.049 16.4279 745.313 16.4279 755.546 13.0253C753.84 16.1946 773.952 9.54902 784.185 6.37973C782.479 9.30206 770.896 15.9477 781.129 13.0253C779.424 16.9218 783.688 16.9218 793.921 13.0253C792.215 15.001 796.479 15.001 806.712 13.0253C805.007 15.248 809.271 15.248 819.504 13.0253C817.798 15.1382 828.501 23.924 819.504 1.86076C818.573 -0.423367 834.854 15.1794 845.087 13.0253C843.382 14.7952 847.646 11.0736 857.879 9.30378C856.185 11.3892 860.382 11.4028 870.471 9.34469C871.095 8.30447 877.083 1.9836 882 9.30378C884.494 13.0158 886.013 17.1747 896.175 13.0574C897.244 11.8527 901.932 7.75456 908 13.0253C912 16.5 911.224 7.5 921.837 7.5C936 7.5 920.897 16.5513 931.13 13.0253C929.425 14.8501 937.187 14.8501 947.42 13.0253C945.715 14.8364 945.767 22.0135 956 20.2025C954.294 24.0715 967.455 19.1392 973.003 13.0253C974.709 11.1457 967.88 22.0821 978.113 20.2025C976.408 22.2468 988.353 15.0696 998.586 13.0253C996.881 17.2099 1001.14 17.2099 1011.38 13.0253C1009.67 15.1656 1013.94 15.1656 1024.17 13.0253C1022.46 16.9767 1026.73 16.9767 1036.96 13.0253C1035.3 16.9384 1039.3 17.0424 1048.95 13.3375C1047.88 13.0459 1048.32 9.34879 1056.79 7.97467C1055.08 10.7872 1081.57 20.4683 1069.58 7.97467C1067.9 6.22517 1077.89 14.7678 1088.13 13.0253C1086.42 15.8516 1090.69 15.8516 1100.92 13.0253C1099.21 14.8638 1103.48 14.8638 1113.71 13.0253C1112.01 14.994 1116.24 15.001 1126.39 13.0463C1127.4 11.3337 1134.04 1.98592 1142.55 0C1140.85 3.7318 1141.85 16.7571 1152.09 13.0253C1150.38 14.754 1154.64 14.754 1164.88 13.0253C1163.17 15.1519 1167.44 15.1519 1177.67 13.0253C1175.96 16.0711 1180.23 16.0711 1190.46 13.0253C1188.75 15.6321 1193.02 15.6321 1203.25 13.0253C1201.55 14.9598 1232.34 0.083302 1229.02 5.58228C1224.52 13.0253 1241.78 14.9855 1252.01 12.2278C1250.31 16.4124 1257.77 14.8175 1268.01 10.6329C1266.3 14.4745 1282.5 12.2278 1282.5 12.2278C1282.5 12.2278 1307 407.481 1297.5 417.5C1190.16 530.706 -4.02364 427.5 -4.02364 427.5Z" fill="url(#paint0_linear_70_9)"/>
<defs>
<linearGradient id="paint0_linear_70_9" x1="-8.99999" y1="41" x2="1432" y2="471" gradientUnits="userSpaceOnUse">
<stop stop-color="#FFCC00"/>
<stop offset="0.91" stop-color="#574554"/>
<stop offset="1" stop-color="#000080"/>
</linearGradient>
</defs>
</svg>
