<svg width="1320" height="741" viewBox="0 0 1320 741" fill="none" xmlns="http://www.w3.org/2000/svg">
<path d="M7.00006 68.5C-3.23323 71.5595 1.0002 661.114 1.00006 697C1.00006 697 1175.92 800.996 1284 688.5C1357.5 612 1293.5 56 1293.5 56C1293.5 56 0.500552 68.5 7.00006 68.5Z" fill="url(#paint0_linear_70_9)"/>
<path d="M907.043 9.34468C907.109 9.33114 907.176 9.3175 907.243 9.30378C906.989 9.54707 906.934 9.52684 907.043 9.34468C907.667 8.30445 913.655 1.9836 918.573 9.30378C921.066 13.0158 922.585 17.1747 932.748 13.0574C933.817 11.8527 938.505 7.75458 944.573 13.0253C948.573 16.5 947.797 7.5 958.41 7.5C972.573 7.5 957.47 16.5513 967.703 13.0253C965.998 14.8501 973.76 14.8501 983.993 13.0253C982.287 14.8364 982.34 22.0135 992.573 20.2025C990.867 24.0715 1004.03 19.1392 1009.58 13.0253C1011.28 11.1457 1004.45 22.0821 1014.69 20.2025C1014.69 20.2025 1024.93 15.0696 1035.16 13.0253C1033.45 17.2099 1037.72 17.2099 1047.95 13.0253C1046.25 15.1656 1050.51 15.1656 1060.74 13.0253C1059.04 16.9767 1063.3 16.9767 1073.53 13.0253C1071.87 16.9384 1075.87 17.0424 1085.52 13.3375C1084.45 13.0459 1084.89 9.34879 1093.36 7.97467C1091.66 10.7872 1118.15 20.4683 1106.15 7.97467C1104.47 6.22517 1114.47 14.7678 1124.7 13.0253C1122.99 15.8516 1127.26 15.8516 1137.49 13.0253C1135.79 14.8638 1140.05 14.8638 1150.28 13.0253C1148.58 14.994 1152.81 15.001 1162.97 13.0463C1163 13.0393 1163.04 13.0324 1163.08 13.0253C1162.79 13.4267 1162.76 13.3924 1162.97 13.0463C1152.81 15.001 1148.58 14.994 1150.28 13.0253C1140.05 14.8638 1135.79 14.8638 1137.49 13.0253C1127.26 15.8516 1122.99 15.8516 1124.7 13.0253C1114.47 14.7678 1104.47 6.22517 1106.15 7.97467C1118.15 20.4683 1091.66 10.7872 1093.36 7.97467C1084.89 9.34879 1084.45 13.0459 1085.52 13.3375C1085.79 13.2363 1086.05 13.1322 1086.33 13.0253C1086.03 13.3113 1085.74 13.3982 1085.52 13.3375C1075.87 17.0424 1071.87 16.9384 1073.53 13.0253C1063.3 16.9767 1059.04 16.9767 1060.74 13.0253C1050.51 15.1656 1046.25 15.1656 1047.95 13.0253C1037.72 17.2099 1033.45 17.2099 1035.16 13.0253C1024.93 15.0696 1014.69 20.2025 1014.69 20.2025C1004.45 22.0821 1011.28 11.1457 1009.58 13.0253C1004.03 19.1392 990.867 24.0715 992.573 20.2025C982.34 22.0135 982.287 14.8364 983.993 13.0253C973.76 14.8501 965.998 14.8501 967.703 13.0253C957.47 16.5513 972.573 7.5 958.41 7.5C947.797 7.5 948.573 16.5 944.573 13.0253C938.505 7.75458 933.817 11.8527 932.748 13.0574C932.774 13.0467 932.8 13.0361 932.826 13.0253C932.432 13.5202 932.426 13.4197 932.748 13.0574C922.585 17.1747 921.066 13.0158 918.573 9.30378C913.655 1.9836 907.667 8.30445 907.043 9.34468Z" fill="url(#paint1_linear_70_9)"/>
<defs>
<linearGradient id="paint0_linear_70_9" x1="27.5717" y1="41.0001" x2="1468.57" y2="471" gradientUnits="userSpaceOnUse">
<stop stop-color="#FFCC00"/>
<stop offset="0.91" stop-color="#574554"/>
<stop offset="1" stop-color="#000080"/>
</linearGradient>
<linearGradient id="paint1_linear_70_9" x1="27.5717" y1="41.0001" x2="1468.57" y2="471" gradientUnits="userSpaceOnUse">
<stop stop-color="#FFCC00"/>
<stop offset="0.91" stop-color="#574554"/>
<stop offset="1" stop-color="#000080"/>
</linearGradient>
</defs>
</svg>
