<svg width="1280" height="447" viewBox="0 0 1280 447" fill="none" xmlns="http://www.w3.org/2000/svg">
<path d="M-10.4999 452.5C-12.2061 458.255 -14.7371 29.2549 -4.49999 23.5001C-6.20617 29.2291 3.8323 20.1216 11.5 29C21 40 20.7629 19.5097 31 12C29.3193 14.7963 40.958 27.4523 51.0911 25.1169C50.702 23.2027 53.8194 9.5 63 9.5C63.7397 9.5 64.2928 9.47706 64.6969 9.44408C65.4761 8.99462 66.3821 9.30658 64.6969 9.44408C63.5157 10.1255 62.6261 12.557 71.5 20C81.634 28.4999 77.5 22.3365 81 29C83.6305 34.0082 92.4998 30.3936 102.737 25.0001C101.031 29.6968 97.2629 49.6968 107.5 45.0001C105.794 49.1807 118.092 29.1807 128.33 25.0001C126.623 27.6323 130.889 27.6323 141.126 25.0001C139.42 27.5807 138.967 33.5807 149.204 31.0001C147.497 38.5097 151.763 38.5097 162 31.0001C160.294 38.7162 169.278 32.7162 179.515 25.0001C177.809 29.0775 192.763 21.0774 203 17C201.294 19.8645 194.871 27.8646 205.108 25.0001C203.401 33.0001 226 5.50006 238.5 3.50006C241.555 3.01129 220.463 27.5807 230.7 25.0001C228.994 28.0452 233.26 28.0452 243.497 25.0001C241.792 28.6095 246.048 28.613 256.263 25.0106C257.43 20.7241 261.377 8.72536 268.5 3.50006C266.794 6.4678 271.649 27.9678 281.886 25.0001C280.179 27.7097 284.445 27.7097 294.682 25.0001C292.976 32.1485 296 32.0001 307.478 25.0001C314.29 20.8462 306 34.0001 311.5 41.0001C315.331 45.8757 310.038 29.9613 320.275 24C318.569 26.7871 342.263 19.2872 352.5 16.5001C350.794 22.3839 349.5 42.0001 358.664 25.0001C361.539 19.6666 364.503 26.4701 373.747 21.6971C369.278 17.4241 366.196 11.3175 371.46 8.00005C369.754 15.4581 399.612 32.4581 409.849 25.0001C408.143 31.3227 375.408 54.8227 385.645 48.5001C383.939 55.2356 425 17.0001 438.5 25C441.639 26.8604 438.001 28.2259 448.238 25.0001C446.532 29.1549 456.763 21.1548 467 17C465.294 21.8 463.594 29.8001 473.831 25.0001C472.125 28.2775 476.39 28.2775 486.627 25.0001C484.921 28.2001 489.187 28.2001 499.424 25.0001C497.718 30.7807 520.5 33.5 519.5 23.9999C519.118 20.3708 504.266 19.2386 513 13C516.5 10.5 534.763 23.4516 545 17C543.294 22.2129 537 45.5 550.609 25.0001C552.441 22.2408 553.168 27.8388 563.406 25.0001C561.699 28.9485 600.5 40 576.202 25.0001C570.098 21.2318 577.468 14.9677 587.705 7.99993C585.999 11.7161 601.621 33.9999 603.909 23.9999C605.615 16.5419 603.763 29.4581 614 22C612.294 29.1742 617.15 32.1743 627.387 25.0001C625.681 30.1614 648 39.5 644.5 32.5C642.671 28.8426 637.763 22.2161 648 18.5C646.294 23.4548 673 34.5 662.5 20.5C660.473 17.7971 687.005 8.96266 685.5 19.5C683.5 33.5 692.763 20.5194 703 13.5C701.294 19.5129 693.928 31.013 704.165 25.0001C702.459 30.8323 706.724 30.8323 716.961 25.0001C715.255 32.2517 719.521 32.2517 729.758 25.0001C728.052 29.0517 732.317 29.0517 742.554 25.0001C740.848 31.4001 745.113 31.4001 755.351 25.0001C753.644 30.9614 773.763 18.4613 784 12.5C782.294 17.9968 770.706 30.4968 780.943 25.0001C779.237 32.3291 783.503 32.3291 793.74 25.0001C792.034 28.7162 796.299 28.7162 806.536 25.0001C804.83 29.1807 809.095 29.1807 819.332 25.0001C817.626 28.9743 828.332 45.5 819.332 4C818.4 -0.296332 834.688 29.0517 844.925 25.0001C843.219 28.3291 847.484 21.329 857.721 18C856.015 21.9484 860.281 21.9484 870.518 18C868.811 21.071 885.873 3.57097 896.11 0.5C894.404 8.34516 885.873 32.8452 896.11 25.0001C894.535 28.7173 908.96 40.5118 919.24 39.129C916.699 36.9027 914.319 28.8159 921.703 25.0001C919.997 31.6323 920.763 31.6323 931 25.0001C929.336 28.3471 936.679 28.4302 946.538 25.2494C945.176 23.5209 944.783 10.4007 953.5 7.5C951.794 14.7774 967.338 36.5 972.888 25.0001C974.594 21.4646 967.763 42.0355 978 38.5C976.294 42.3452 988.244 28.8452 998.481 25.0001C996.775 32.871 1001.04 32.871 1011.28 25.0001C1009.57 29.0259 1013.84 29.0259 1024.07 25.0001C1022.37 32.4323 1026.63 32.4323 1036.87 25.0001C1035.21 32.3603 1039.21 32.556 1048.86 25.5872C1047.79 25.0388 1048.23 18.0847 1056.7 15.5C1055 20.7903 1081.5 39 1069.5 15.5C1067.82 12.2093 1077.82 28.2775 1088.05 25.0001C1086.35 30.3162 1090.61 30.3162 1100.85 25.0001C1099.15 28.4581 1103.41 28.4581 1113.65 25.0001C1111.95 28.703 1116.18 28.7162 1126.34 25.0395C1127.34 21.8182 1133.98 4.23542 1142.5 0.5C1140.79 7.51936 1141.8 32.0194 1152.04 25.0001C1150.33 28.2517 1154.6 28.2517 1164.83 25.0001C1163.13 29.0001 1167.39 29.0001 1177.63 25.0001C1175.92 30.7291 1180.19 30.7291 1190.43 25.0001C1188.72 29.9033 1192.98 29.9033 1203.22 25.0001C1201.52 28.6388 1232.32 0.656692 1229 11C1224.5 25 1241.76 28.6871 1252 23.5C1250.29 31.371 1257.76 28.371 1268 20.5C1266.29 27.7258 1284 39.5 1284 39.5C1284 39.5 1297.36 436.807 1307.55 442.03C1307.7 442.02 1307.85 442.01 1308 442C1307.85 442.099 1307.7 442.108 1307.55 442.03C1149.8 452.5 -10.4999 452.5 -10.4999 452.5Z" fill="#FFCC00"/>
</svg>
