<svg width="200" height="200" viewBox="0 0 200 200" fill="none" xmlns="http://www.w3.org/2000/svg">
<g clip-path="url(#clip0_66_2)">
<path d="M100 191.667C150.625 191.667 191.667 150.625 191.667 100C191.667 49.375 150.625 8.33337 100 8.33337M100 191.667C49.375 191.667 8.33337 150.625 8.33337 100C8.33337 49.375 49.375 8.33337 100 8.33337M100 191.667C125 191.667 133.333 150 133.333 100C133.333 50 125 8.33337 100 8.33337M100 191.667C75 191.667 66.6667 150 66.6667 100C66.6667 50 75 8.33337 100 8.33337M16.6667 133.333H183.333M16.6667 66.6667H183.333" stroke="#000080" stroke-width="16.6667"/>
</g>
<defs>
<clipPath id="clip0_66_2">
<rect width="200" height="200" fill="white"/>
</clipPath>
</defs>
</svg>
