<svg width="200" height="200" viewBox="0 0 200 200" fill="none" xmlns="http://www.w3.org/2000/svg">
<g clip-path="url(#clip0_84_2)">
<path fill-rule="evenodd" clip-rule="evenodd" d="M100 0C44.77 0 0 44.77 0 100C0 155.23 44.77 200 100 200C155.23 200 200 155.23 200 100C200 44.77 155.23 0 100 0ZM65 75C65 70.4037 65.9053 65.8525 67.6642 61.6061C69.4231 57.3597 72.0012 53.5013 75.2513 50.2513C78.5013 47.0012 82.3597 44.4231 86.6061 42.6642C90.8525 40.9053 95.4037 40 100 40C104.596 40 109.148 40.9053 113.394 42.6642C117.64 44.4231 121.499 47.0012 124.749 50.2513C127.999 53.5013 130.577 57.3597 132.336 61.6061C134.095 65.8525 135 70.4037 135 75C135 84.2826 131.313 93.185 124.749 99.7487C118.185 106.313 109.283 110 100 110C90.7174 110 81.815 106.313 75.2513 99.7487C68.6875 93.185 65 84.2826 65 75ZM162.58 149.84C155.094 159.256 145.578 166.86 134.742 172.082C123.905 177.305 112.029 180.011 100 180C87.9709 180.011 76.0946 177.305 65.2583 172.082C54.422 166.86 44.9056 159.256 37.42 149.84C53.63 138.21 75.75 130 100 130C124.25 130 146.37 138.21 162.58 149.84Z" fill="#000080"/>
</g>
<defs>
<clipPath id="clip0_84_2">
<rect width="200" height="200" fill="white"/>
</clipPath>
</defs>
</svg>
