<svg width="200" height="200" viewBox="0 0 200 200" fill="none" xmlns="http://www.w3.org/2000/svg">
<path d="M142.083 169C133.917 176.917 125 175.667 116.417 171.917C107.333 168.083 99.0001 167.917 89.4167 171.917C77.4167 177.083 71.0834 175.583 63.9167 169C23.2501 127.083 29.2501 63.25 75.4167 60.9167C86.6667 61.5 94.5001 67.0833 101.083 67.5833C110.917 65.5833 120.333 59.8333 130.833 60.5833C143.417 61.5833 152.917 66.5833 159.167 75.5833C133.167 91.1667 139.333 125.417 163.167 135C158.417 147.5 152.25 159.917 142 169.083L142.083 169ZM100.25 60.4167C99.0001 41.8333 114.083 26.5 131.417 25C133.833 46.5 111.917 62.5 100.25 60.4167Z" fill="#000080"/>
</svg>
