<svg width="200" height="200" viewBox="0 0 200 200" fill="none" xmlns="http://www.w3.org/2000/svg">
<path d="M162.475 66.575L100 127.475L37.525 66.575C36.4088 65.4846 34.9103 64.8742 33.35 64.8742C31.7896 64.8742 30.2911 65.4846 29.175 66.575C28.6345 67.1046 28.2051 67.7366 27.912 68.4342C27.6189 69.1318 27.4679 69.8808 27.4679 70.6375C27.4679 71.3942 27.6189 72.1432 27.912 72.8408C28.2051 73.5384 28.6345 74.1705 29.175 74.7L95.6375 139.5C96.8046 140.638 98.3701 141.274 100 141.274C101.63 141.274 103.195 140.638 104.362 139.5L170.825 74.7125C171.369 74.1826 171.802 73.5489 172.097 72.849C172.393 72.1492 172.545 71.3972 172.545 70.6375C172.545 69.8778 172.393 69.1259 172.097 68.426C171.802 67.7261 171.369 67.0925 170.825 66.5625C169.709 65.4721 168.21 64.8617 166.65 64.8617C165.09 64.8617 163.591 65.4721 162.475 66.5625V66.575Z" fill="#DCDCDC"/>
</svg>
