<svg width="123" height="112" viewBox="0 0 123 112" fill="none" xmlns="http://www.w3.org/2000/svg">
    <g clip-path="url(#clip0_220_2)">
        <path d="M2.35021 84.42L45.2802 10.2L45.4502 9.93001C47.2344 7.02388 49.6425 4.55086 52.5002 2.69001C55.2081 0.953221 58.3533 0.0204303 61.5702 1.31851e-05C64.8032 -0.0040486 67.968 0.930425 70.6802 2.69001C73.5264 4.5569 75.9183 7.03763 77.6802 9.95001C77.8069 10.1633 77.9269 10.3733 78.0402 10.58L120.27 83.92L120.51 84.36C122.091 87.523 122.903 91.0142 122.88 94.55C122.86 97.4701 122.114 100.339 120.71 102.9C119.131 105.758 116.712 108.062 113.78 109.5C113.59 109.6 113.39 109.68 113.2 109.76C110.33 111.009 107.219 111.607 104.09 111.51H17.6102C17.3902 111.51 17.1702 111.51 16.9602 111.51C14.8421 111.493 12.7435 111.104 10.7602 110.36C7.60643 109.165 4.89701 107.029 3.00021 104.24C1.08955 101.41 0.0468712 98.0841 0.00020983 94.67C-0.0491579 91.6824 0.484113 88.7137 1.57021 85.93C1.77023 85.3997 2.02847 84.8933 2.34021 84.42H2.35021Z" fill="#FFCC00"/>
        <path fill-rule="evenodd" clip-rule="evenodd" d="M8.99982 88.7501L52.1198 14.1601C57.3598 5.91005 65.6598 5.70005 70.9898 14.1601L113.42 87.8501C116.81 94.6601 115.13 103.85 104.09 103.62H17.6098C10.3498 103.8 5.66982 97.4301 8.99982 88.7501Z" fill="#000080"/>
        <path fill-rule="evenodd" clip-rule="evenodd" d="M14.8765 85.6287L53.1322 19.4531C57.7811 12.1338 65.1448 11.9475 69.8735 19.4531L107.517 84.8302C110.525 90.872 109.034 99.0253 99.2395 98.8213H22.5152C16.0742 98.981 11.9222 93.3295 14.8765 85.6287Z" fill="#FFCC00"/>
        <path d="M57.5704 83.78C58.4929 82.8672 59.7071 82.3079 61.0004 82.2C61.8171 82.1431 62.6363 82.266 63.4004 82.56C64.1513 82.8474 64.8329 83.2904 65.4004 83.86C66.0476 84.5031 66.5267 85.2956 66.7952 86.1675C67.0638 87.0395 67.1137 87.9642 66.9404 88.86C66.8521 89.3245 66.7112 89.7774 66.5204 90.21C66.0669 91.2061 65.3299 92.0466 64.4015 92.6264C63.4732 93.2062 62.3945 93.4996 61.3004 93.47C60.5154 93.451 59.7427 93.2706 59.0304 92.94C57.7757 92.3419 56.7934 91.2918 56.2804 90C56.1067 89.5937 55.9857 89.1669 55.9204 88.73C55.8512 88.297 55.8311 87.8575 55.8604 87.42C55.9423 86.7272 56.1348 86.0519 56.4304 85.42C56.6983 84.8266 57.0865 84.2954 57.5704 83.86V83.78ZM65.7204 73.54C65.5304 78.33 57.4104 78.34 57.2304 73.54C56.4104 65.33 54.3104 44.2 54.3704 36.49C54.4404 34.11 56.3704 32.7 58.9304 32.16C60.5809 31.8321 62.2799 31.8321 63.9304 32.16C66.5404 32.72 68.5804 34.16 68.5804 36.6V36.84L65.7204 73.54Z" fill="#000080"/>
    </g>
    <defs>
        <clipPath id="clip0_220_2">
            <rect width="122.88" height="111.54" fill="white"/>
        </clipPath>
    </defs>
</svg>
