<svg width="200" height="200" viewBox="0 0 200 200" fill="none" xmlns="http://www.w3.org/2000/svg">
<path fill-rule="evenodd" clip-rule="evenodd" d="M108.333 92.9167V33.3333C108.333 31.1232 107.455 29.0036 105.893 27.4408C104.33 25.878 102.21 25 100 25C97.7899 25 95.6703 25.878 94.1075 27.4408C92.5447 29.0036 91.6667 31.1232 91.6667 33.3333V92.9167L73.1667 69.7833C72.4962 68.8909 71.6533 68.1422 70.688 67.5817C69.7226 67.0213 68.6545 66.6605 67.547 66.5208C66.4395 66.3811 65.3153 66.4653 64.241 66.7684C63.1667 67.0716 62.1642 67.5874 61.2931 68.2854C60.422 68.9834 59.7 69.8493 59.17 70.8317C58.64 71.8141 58.3127 72.893 58.2076 74.0043C58.1026 75.1156 58.2219 76.2366 58.5584 77.3009C58.8949 78.3653 59.4418 79.3511 60.1667 80.2L93.5 121.867C94.2809 122.84 95.2703 123.625 96.3953 124.165C97.5204 124.705 98.7522 124.985 100 124.985C101.248 124.985 102.48 124.705 103.605 124.165C104.73 123.625 105.719 122.84 106.5 121.867L139.833 80.2C140.558 79.3511 141.105 78.3653 141.442 77.3009C141.778 76.2366 141.897 75.1156 141.792 74.0043C141.687 72.893 141.36 71.8141 140.83 70.8317C140.3 69.8493 139.578 68.9834 138.707 68.2854C137.836 67.5874 136.833 67.0716 135.759 66.7684C134.685 66.4653 133.561 66.3811 132.453 66.5208C131.346 66.6605 130.277 67.0213 129.312 67.5817C128.347 68.1422 127.504 68.8909 126.833 69.7833L108.333 92.9167Z" fill="#F0F4F9"/>
<path fill-rule="evenodd" clip-rule="evenodd" d="M80.475 132.283L61.3167 108.333H41.6667C37.2464 108.333 33.0072 110.089 29.8816 113.215C26.7559 116.34 25 120.58 25 125V158.333C25 162.754 26.7559 166.993 29.8816 170.118C33.0072 173.244 37.2464 175 41.6667 175H158.333C162.754 175 166.993 173.244 170.118 170.118C173.244 166.993 175 162.754 175 158.333V125C175 120.58 173.244 116.34 170.118 113.215C166.993 110.089 162.754 108.333 158.333 108.333H138.683L119.517 132.283C117.175 135.211 114.204 137.574 110.825 139.198C107.446 140.822 103.745 141.665 99.9958 141.665C96.2468 141.665 92.5458 140.822 89.1668 139.198C85.7877 137.574 82.8172 135.211 80.475 132.283ZM141.667 133.333C139.457 133.333 137.337 134.211 135.774 135.774C134.211 137.337 133.333 139.457 133.333 141.667C133.333 143.877 134.211 145.996 135.774 147.559C137.337 149.122 139.457 150 141.667 150H141.75C143.96 150 146.08 149.122 147.643 147.559C149.205 145.996 150.083 143.877 150.083 141.667C150.083 139.457 149.205 137.337 147.643 135.774C146.08 134.211 143.96 133.333 141.75 133.333H141.667Z" fill="#F0F4F9"/>
</svg>
