<svg width="100" height="100" viewBox="0 0 100 100" fill="none" xmlns="http://www.w3.org/2000/svg">
<g clip-path="url(#clip0_157_2)">
<path d="M11.7222 64.4445L6.44445 87.2222C6.26238 88.0549 6.26862 88.9177 6.46271 89.7476C6.6568 90.5776 7.03384 91.3536 7.56629 92.0192C8.09873 92.6848 8.77313 93.223 9.54021 93.5945C10.3073 93.966 11.1477 94.1615 12 94.1667C12.397 94.2096 12.7975 94.2096 13.1944 94.1667L36.1111 88.8889L80.1111 45.0556L55.5556 20.5556L11.7222 64.4445Z" fill="white"/>
<path d="M93.9444 23.1111L77.5556 6.72222C76.4781 5.65018 75.0199 5.04837 73.5 5.04837C71.98 5.04837 70.5219 5.65018 69.4444 6.72222L60.3333 15.8333L84.8611 40.3611L93.9722 31.25C94.5054 30.7141 94.9277 30.0783 95.2149 29.3791C95.5021 28.6798 95.6486 27.9308 95.6461 27.1748C95.6435 26.4188 95.4919 25.6708 95.1999 24.9735C94.9079 24.2762 94.4813 23.6434 93.9444 23.1111Z" fill="white"/>
</g>
<defs>
<clipPath id="clip0_157_2">
<rect width="100" height="100" fill="white"/>
</clipPath>
</defs>
</svg>
