<svg width="100" height="86" viewBox="0 0 100 86" fill="none" xmlns="http://www.w3.org/2000/svg">
<path d="M55.8106 15.793C53.903 15.5866 51.9648 15.4684 50 15.439C41.4146 15.477 32.5148 17.5654 24.0906 21.567C17.8358 24.6605 11.7428 29.0277 6.45142 34.4148C3.85267 37.1648 0.535917 41.1466 0 45.395C0.0633333 49.0751 4.01275 53.6175 6.45142 56.3753C11.4133 61.5508 17.3476 65.793 24.0906 69.2231C24.3198 69.3344 24.5498 69.4443 24.7803 69.5527L18.5243 80.4779L27.0247 85.5017L72.976 5.49896L64.7938 0.498291L55.8106 15.793ZM75.2136 21.2495L68.9697 32.071C71.8422 35.8028 73.5473 40.4048 73.5473 45.395C73.5473 57.833 63.0038 67.917 49.9938 67.917C49.4314 67.917 48.8863 67.8563 48.3337 67.8193L44.2016 74.9726C46.1073 75.1767 48.0341 75.3254 49.9999 75.351C58.5935 75.3125 67.4883 73.2 75.9033 69.2231C82.1581 66.1296 88.2571 61.7624 93.5485 56.3753C96.1473 53.6254 99.4639 49.6435 99.9999 45.395C99.9366 41.7149 95.9872 37.1725 93.5485 34.4147C88.5866 29.2392 82.6463 24.997 75.9033 21.5668C75.6757 21.4565 75.4427 21.3572 75.2136 21.2495ZM49.9939 22.8731C50.5644 22.8731 51.1304 22.896 51.6907 22.9341L46.8506 31.3142C40.0577 32.6914 34.9609 38.4709 34.9609 45.389C34.9609 47.1268 35.281 48.7905 35.8703 50.3327C35.871 50.3345 35.8697 50.3371 35.8703 50.3389L31.018 58.7434C28.1388 55.0081 26.4403 50.391 26.4403 45.3949C26.4404 32.957 36.984 22.873 49.9939 22.8731ZM64.0747 40.5427L53.1678 59.4392C59.9241 58.0361 64.9842 52.283 64.9842 45.389C64.9842 43.6828 64.6437 42.0607 64.0747 40.5427Z" fill="#CECECE"/>
</svg>
