<svg width="100" height="100" viewBox="0 0 100 100" fill="none" xmlns="http://www.w3.org/2000/svg">
<g clip-path="url(#clip0_71_2)">
<path d="M53.125 41.625C49.8098 41.625 46.6304 42.942 44.2862 45.2862C41.942 47.6304 40.625 50.8098 40.625 54.125C40.625 57.4402 41.942 60.6196 44.2862 62.9638C46.6304 65.308 49.8098 66.625 53.125 66.625C56.4402 66.625 59.6196 65.308 61.9638 62.9638C64.308 60.6196 65.625 57.4402 65.625 54.125C65.625 50.8098 64.308 47.6304 61.9638 45.2862C59.6196 42.942 56.4402 41.625 53.125 41.625Z" fill="#CECECE"/>
<path fill-rule="evenodd" clip-rule="evenodd" d="M53.5399 22.9166C41.7638 22.9166 31.1753 27.7674 23.5465 33.7766C19.7231 36.7859 16.5879 40.1274 14.3883 43.3766C12.2293 46.5705 5.5 49.9212 5.5 52.9166C5.5 55.912 12.2338 59.2628 14.3883 62.452C16.5924 65.7059 19.7231 69.0474 23.5465 72.052C31.1753 78.0705 41.7638 82.9166 53.5399 82.9166C65.3159 82.9166 75.9044 78.0659 83.5332 72.0566C87.3566 69.0474 90.4918 65.7059 92.6869 62.4566C94.846 59.2628 100.5 55.912 100.5 52.9166C100.5 49.9212 94.846 46.5705 92.6869 43.3812C90.4918 40.1274 87.3566 36.7859 83.5332 33.7812C75.9044 27.7628 65.3159 22.9166 53.5399 22.9166ZM36.672 52.9166C36.672 48.3263 38.4491 43.9241 41.6125 40.6782C44.7758 37.4324 49.0662 35.6089 53.5399 35.6089C58.0135 35.6089 62.3039 37.4324 65.4673 40.6782C68.6306 43.9241 70.4078 48.3263 70.4078 52.9166C70.4078 57.5069 68.6306 61.9092 65.4673 65.155C62.3039 68.4008 58.0135 70.2243 53.5399 70.2243C49.0662 70.2243 44.7758 68.4008 41.6125 65.155C38.4491 61.9092 36.672 57.5069 36.672 52.9166Z" fill="#CECECE"/>
</g>
<defs>
<clipPath id="clip0_71_2">
<rect width="100" height="100" fill="white"/>
</clipPath>
</defs>
</svg>
