<svg width="120" height="120" viewBox="0 0 120 120" fill="none" xmlns="http://www.w3.org/2000/svg">
<path d="M60 107.917C57.2848 107.917 54.9886 106.978 53.112 105.102C51.2353 103.225 50.2969 100.929 50.2969 98.2136H69.7031C69.7031 100.929 68.7647 103.225 66.888 105.102C65.0114 106.978 62.7152 107.917 60 107.917ZM40.5938 90.7865V83.599H79.4062V90.7865H40.5938ZM41.1927 76.2917C35.9219 72.8577 31.7491 68.5651 28.6745 63.4141C25.5998 58.263 24.0625 52.4531 24.0625 45.9844C24.0625 36.2415 27.6162 27.8161 34.724 20.7084C41.8317 13.6008 50.2569 10.0469 60 10.0469C69.7431 10.0469 78.1683 13.6008 85.276 20.7084C92.3838 27.8161 95.9375 36.2415 95.9375 45.9844C95.9375 52.4531 94.4202 58.263 91.3854 63.4141C88.3506 68.5651 84.1579 72.8577 78.8073 76.2917H41.1927Z" fill="#FFCC00"/>
</svg>
