<svg width="200" height="200" viewBox="0 0 200 200" fill="none" xmlns="http://www.w3.org/2000/svg">
<path d="M174.65 127.708C176.35 123.658 171.492 120.208 167.417 122.008C159.271 125.584 150.47 127.423 141.575 127.408C106.7 127.408 78.4333 99.7083 78.4333 65.5333C78.4206 53.9945 81.6988 42.6914 87.8833 32.95C90.25 29.2167 87.4083 24.05 83.075 25.15C49.6667 33.675 25 63.4417 25 98.85C25 140.908 59.7917 175 102.717 175C135.217 175 163.05 155.458 174.65 127.708Z" fill="white"/>
<path d="M130.092 25.8583C125.675 22.9083 120.408 28.175 123.35 32.5917L128.6 40.4667C130.73 43.6597 131.866 47.4119 131.866 51.25C131.866 55.0881 130.73 58.8403 128.6 62.0333L123.35 69.9083C120.408 74.325 125.683 79.5916 130.1 76.6416L137.967 71.3917C141.16 69.2619 144.912 68.1254 148.75 68.1254C152.588 68.1254 156.34 69.2619 159.533 71.3917L167.408 76.6416C171.825 79.5916 177.092 74.325 174.142 69.9083L168.892 62.0333C166.762 58.8403 165.625 55.0881 165.625 51.25C165.625 47.4119 166.762 43.6597 168.892 40.4667L174.142 32.5917C177.092 28.175 171.825 22.9083 167.4 25.8583L159.533 31.1083C156.34 33.2381 152.588 34.3746 148.75 34.3746C144.912 34.3746 141.16 33.2381 137.967 31.1083L130.092 25.8583Z" fill="white"/>
</svg>
