<svg width="200" height="200" viewBox="0 0 200 200" fill="none" xmlns="http://www.w3.org/2000/svg">
<g clip-path="url(#clip0_96_6)">
<mask id="mask0_96_6" style="mask-type:alpha" maskUnits="userSpaceOnUse" x="13" y="0" width="174" height="201">
<path d="M16.6802 0.880014C17.696 0.298941 18.8468 -0.00450556 20.0171 0.000175418C21.1873 0.0048564 22.3357 0.3175 23.3468 0.906681L127.92 61.9067L95.5602 91.0267L13.4999 16C14.0875 14.9839 15.6623 1.46456 16.6802 0.880014ZM13.4999 16L13.3335 165.027L95.5602 91.0267L13.4999 16ZM13.3335 182.973V193.333C13.3331 194.506 13.6423 195.659 14.2298 196.674C14.8172 197.689 15.6622 198.532 16.6793 199.116C17.6965 199.7 18.8498 200.006 20.0228 200.002C21.1958 199.998 22.347 199.685 23.3602 199.093L127.92 138.093L95.5602 108.973L13.3335 182.973ZM140.013 131.04L183.347 105.76C184.354 105.173 185.19 104.332 185.77 103.322C186.351 102.311 186.657 101.166 186.657 100C186.657 98.8343 186.351 97.689 185.77 96.6783C185.19 95.6677 184.354 94.8269 183.347 94.24L140.013 68.96L105.52 100L140.013 131.04Z" fill="#000080"/>
</mask>
<g mask="url(#mask0_96_6)">
<path d="M12.9999 183.5L95.5 109L128 138L20 201L14.5 199L12.9999 194L12.9999 183.5Z" fill="#7a6200"/>
<path d="M106 99.5L141 69.0001L188.5 99.5L137.5 130L106 99.5Z" fill="white"/>
<path d="M16.5 -2.5L127 62L12.5 165.5V18L16.5 -2.5Z" fill="#000080"/>
</g>
</g>
<defs>
<clipPath id="clip0_96_6">
<rect width="200" height="200" fill="white"/>
</clipPath>
</defs>
</svg>
