<svg width="32" height="32" viewBox="0 0 32 32" fill="none" xmlns="http://www.w3.org/2000/svg">
<rect x="2" y="2" width="28" height="28" rx="14" fill="#FF0E65"/>
<path d="M17.5043 15.9936L22.6896 10.8087C22.8826 10.6089 22.9894 10.3413 22.987 10.0635C22.9845 9.78566 22.8731 9.51992 22.6767 9.32347C22.4802 9.12703 22.2145 9.0156 21.9367 9.01318C21.6589 9.01077 21.3912 9.11756 21.1914 9.31057L16.0061 14.4954L10.8212 9.31057C10.7229 9.21211 10.6061 9.13401 10.4776 9.08072C10.3491 9.02743 10.2113 9 10.0722 9C9.93301 9 9.79523 9.02743 9.6667 9.08072C9.53816 9.13401 9.4214 9.21211 9.32307 9.31057C9.22462 9.40889 9.14651 9.52566 9.09322 9.65419C9.03993 9.78273 9.01251 9.9205 9.01251 10.0596C9.01251 10.1988 9.03993 10.3366 9.09322 10.4651C9.14651 10.5936 9.22462 10.7104 9.32307 10.8087L14.5079 15.9936L9.3112 21.1908C9.16272 21.3388 9.06154 21.5276 9.02049 21.7332C8.97944 21.9389 9.00037 22.152 9.08063 22.3457C9.16089 22.5394 9.29687 22.705 9.47131 22.8213C9.64576 22.9376 9.85082 22.9995 10.0605 22.9992C10.3317 22.9992 10.603 22.8958 10.8098 22.6889L16.0065 17.4918L21.1914 22.6766C21.2897 22.7752 21.4065 22.8533 21.5351 22.9065C21.6637 22.9598 21.8015 22.9871 21.9407 22.9869C22.1502 22.9868 22.355 22.9247 22.5292 22.8083C22.7033 22.6919 22.8391 22.5265 22.9193 22.3329C22.9995 22.1394 23.0205 21.9264 22.9797 21.7209C22.9389 21.5155 22.8381 21.3267 22.69 21.1785L17.5043 15.9936Z" fill="white"/>
</svg>
