<svg width="200" height="200" viewBox="0 0 200 200" fill="none" xmlns="http://www.w3.org/2000/svg">
<g clip-path="url(#clip0_71_10)">
<path fill-rule="evenodd" clip-rule="evenodd" d="M100 111.783L147.142 158.925C148.713 160.443 150.818 161.283 153.003 161.264C155.188 161.245 157.278 160.369 158.824 158.824C160.369 157.279 161.245 155.188 161.264 153.003C161.283 150.818 160.443 148.713 158.925 147.142L111.783 100L158.925 52.8584C160.443 51.2868 161.283 49.1817 161.264 46.9968C161.245 44.8118 160.369 42.7217 158.824 41.1766C157.278 39.6316 155.188 38.7551 153.003 38.7362C150.818 38.7172 148.713 39.5571 147.142 41.0751L100 88.2168L52.8583 41.0751C51.2796 39.5946 49.1868 38.7865 47.0228 38.8216C44.8587 38.8568 42.7933 39.7324 41.2634 41.2634C39.7336 42.7943 38.8593 44.8604 38.8257 47.0245C38.7921 49.1885 39.6018 51.2807 41.0833 52.8584L88.2167 100L41.075 147.142C40.2791 147.91 39.6442 148.83 39.2075 149.847C38.7708 150.863 38.5409 151.957 38.5313 153.063C38.5216 154.17 38.7325 155.267 39.1515 156.291C39.5705 157.316 40.1893 158.246 40.9717 159.028C41.7542 159.811 42.6846 160.43 43.7087 160.849C44.7329 161.268 45.8302 161.478 46.9367 161.469C48.0432 161.459 49.1367 161.229 50.1534 160.793C51.1701 160.356 52.0896 159.721 52.8583 158.925L100 111.783Z" fill="#FF0000"/>
</g>
<defs>
<clipPath id="clip0_71_10">
<rect width="200" height="200" fill="white"/>
</clipPath>
</defs>
</svg>
