<svg width="200" height="200" viewBox="0 0 200 200" fill="none" xmlns="http://www.w3.org/2000/svg">
<g clip-path="url(#clip0_81_6)">
<path fill-rule="evenodd" clip-rule="evenodd" d="M91.0001 23.9C91.9172 22.3263 93.2308 21.0206 94.81 20.1131C96.3892 19.2056 98.1787 18.728 100 18.728C101.821 18.728 103.611 19.2056 105.19 20.1131C106.769 21.0206 108.083 22.3263 109 23.9L132.292 63.8833L177.525 73.6833C179.304 74.07 180.951 74.9162 182.301 76.1378C183.652 77.3593 184.658 78.9134 185.221 80.6452C185.783 82.377 185.882 84.2259 185.507 86.0076C185.132 87.7894 184.296 89.4418 183.083 90.8L152.25 125.308L156.917 171.35C157.101 173.163 156.806 174.992 156.062 176.656C155.318 178.319 154.15 179.758 152.676 180.83C151.202 181.901 149.472 182.566 147.66 182.76C145.849 182.954 144.017 182.669 142.35 181.933L100 163.267L57.6501 181.933C55.9828 182.669 54.1517 182.954 52.3397 182.76C50.5278 182.566 48.7983 181.901 47.324 180.83C45.8498 179.758 44.6823 178.319 43.9382 176.656C43.1941 174.992 42.8994 173.163 43.0835 171.35L47.7501 125.308L16.9168 90.8083C15.702 89.4502 14.8647 87.7972 14.4886 86.0143C14.1124 84.2314 14.2105 82.3811 14.773 80.6479C15.3355 78.9148 16.3428 77.3596 17.6943 76.1375C19.0459 74.9154 20.6943 74.0691 22.4751 73.6833L67.7085 63.8833L91.0001 23.9ZM100 41.5583L80.7251 74.6583C79.9963 75.9077 79.0153 76.9915 77.8445 77.8409C76.6738 78.6903 75.339 79.2865 73.9251 79.5916L36.4918 87.7L62.0085 116.258C63.9585 118.442 64.9001 121.342 64.6085 124.25L60.7501 162.358L95.8001 146.908C97.1236 146.325 98.5539 146.024 100 146.024C101.446 146.024 102.877 146.325 104.2 146.908L139.25 162.358L135.392 124.25C135.245 122.811 135.4 121.357 135.846 119.981C136.292 118.605 137.02 117.337 137.983 116.258L163.508 87.7L126.075 79.5916C124.661 79.2865 123.326 78.6903 122.156 77.8409C120.985 76.9915 120.004 75.9077 119.275 74.6583L100 41.5583Z" fill="#FFD700"/>
</g>
<defs>
<clipPath id="clip0_81_6">
<rect width="200" height="200" fill="white"/>
</clipPath>
</defs>
</svg>
