<svg width="200" height="200" viewBox="0 0 200 200" fill="none" xmlns="http://www.w3.org/2000/svg">
<path d="M84.5334 55.2333C91.0834 38.8917 94.3667 30.7167 100 30.7167C105.633 30.7167 108.917 38.8833 115.467 55.2333L115.775 55.9833C119.475 65.225 121.325 69.8417 125.108 72.65C128.875 75.45 133.833 75.9 143.742 76.7833L145.525 76.9417C161.742 78.3917 169.858 79.1167 171.583 84.275C173.325 89.4417 167.3 94.9167 155.25 105.867L151.242 109.533C145.142 115.075 142.092 117.85 140.675 121.483C140.408 122.162 140.185 122.858 140.008 123.567C139.083 127.35 139.975 131.375 141.758 139.417L142.317 141.917C145.592 156.708 147.233 164.1 144.375 167.292C143.304 168.482 141.912 169.338 140.367 169.758C136.233 170.892 130.367 166.108 118.617 156.542C110.908 150.258 107.05 147.117 102.625 146.408C100.886 146.131 99.114 146.131 97.3751 146.408C92.9417 147.117 89.0917 150.258 81.3751 156.542C69.6417 166.108 63.7667 170.892 59.6334 169.758C58.091 169.337 56.7025 168.481 55.6334 167.292C52.7667 164.1 54.4084 156.708 57.6834 141.925L58.2417 139.417C60.0251 131.367 60.9167 127.35 59.9917 123.558C59.8153 122.85 59.5926 122.154 59.3251 121.475C57.9084 117.85 54.8584 115.075 48.7584 109.525L44.7417 105.867C32.7001 94.9167 26.6751 89.4333 28.4084 84.2833C30.1501 79.1167 38.2584 78.3917 54.4751 76.9417L56.2584 76.775C66.1751 75.8917 71.1251 75.45 74.9001 72.6417C78.6751 69.8417 80.5251 65.225 84.2334 55.9917L84.5334 55.2333Z" stroke="#FFCC00" stroke-width="16.6667"/>
<path d="M35.5 86L72 74.5L100.5 35.0422V145L62.5 167.5L57 124L35.5 86Z" fill="#FFCC00"/>
</svg>
