<svg width="200" height="200" viewBox="0 0 200 200" fill="none" xmlns="http://www.w3.org/2000/svg">
<path fill-rule="evenodd" clip-rule="evenodd" d="M90.736 23.172C91.653 21.5983 92.9667 20.2926 94.5458 19.3851C96.125 18.4776 97.9146 18 99.736 18C101.557 18 103.347 18.4776 104.926 19.3851C106.505 20.2926 107.819 21.5983 108.736 23.172L132.028 63.1553L177.261 72.9553C179.04 73.3419 180.687 74.1882 182.037 75.4097C183.388 76.6312 184.394 78.1854 184.956 79.9171C185.519 81.6489 185.617 83.4979 185.242 85.2796C184.867 87.0614 184.032 88.7137 182.819 90.0719L151.986 124.58L156.653 170.622C156.837 172.435 156.542 174.264 155.798 175.928C155.054 177.591 153.886 179.03 152.412 180.102C150.938 181.173 149.208 181.838 147.396 182.032C145.584 182.226 143.753 181.941 142.086 181.205L99.736 162.539L57.386 181.205C55.7186 181.941 53.8875 182.226 52.0756 182.032C50.2636 181.838 48.5342 181.173 47.0599 180.102C45.5856 179.03 44.4182 177.591 43.674 175.928C42.9299 174.264 42.6352 172.435 42.8193 170.622L47.486 124.58L16.6526 90.0803C15.4379 88.7222 14.6006 87.0691 14.2244 85.2863C13.8482 83.5034 13.9463 81.653 14.5088 79.9199C15.0713 78.1868 16.0787 76.6315 17.4302 75.4094C18.7817 74.1873 20.4302 73.3411 22.211 72.9553L67.4443 63.1553L90.736 23.172Z" fill="#FFD700"/>
</svg>
