<svg width="200" height="200" viewBox="0 0 200 200" fill="none" xmlns="http://www.w3.org/2000/svg">
<path d="M100 10.4167C101.658 10.4167 103.247 11.0752 104.419 12.2473C105.592 13.4194 106.25 15.0091 106.25 16.6667V25.0001C106.25 26.6577 105.592 28.2474 104.419 29.4195C103.247 30.5916 101.658 31.2501 100 31.2501C98.3425 31.2501 96.7528 30.5916 95.5807 29.4195C94.4086 28.2474 93.7501 26.6577 93.7501 25.0001V16.6667C93.7501 15.0091 94.4086 13.4194 95.5807 12.2473C96.7528 11.0752 98.3425 10.4167 100 10.4167ZM100 52.0834C87.2918 52.0834 75.104 57.1318 66.1179 66.1179C57.1318 75.104 52.0834 87.2918 52.0834 100C52.0834 112.708 57.1318 124.896 66.1179 133.882C75.104 142.868 87.2918 147.917 100 147.917C112.708 147.917 124.896 142.868 133.882 133.882C142.868 124.896 147.917 112.708 147.917 100C147.917 87.2918 142.868 75.104 133.882 66.1179C124.896 57.1318 112.708 52.0834 100 52.0834ZM45.5001 36.6584C44.3219 35.5194 42.7434 34.8886 41.1046 34.9021C39.4659 34.9156 37.898 35.5721 36.7387 36.7304C35.5793 37.8886 34.9213 39.4559 34.9062 41.0947C34.8912 42.7334 35.5205 44.3124 36.6584 45.4917L42.5501 51.3834C43.1223 51.9975 43.8123 52.49 44.5789 52.8316C45.3456 53.1732 46.1732 53.3569 47.0124 53.3717C47.8516 53.3865 48.6852 53.2321 49.4634 52.9178C50.2416 52.6034 50.9486 52.1356 51.5421 51.5421C52.1356 50.9486 52.6034 50.2416 52.9178 49.4634C53.2321 48.6852 53.3865 47.8516 53.3717 47.0124C53.3569 46.1732 53.1732 45.3456 52.8316 44.5789C52.49 43.8123 51.9975 43.1223 51.3834 42.5501L45.5001 36.6584ZM189.583 100C189.583 101.658 188.925 103.247 187.753 104.419C186.581 105.592 184.991 106.25 183.333 106.25H175C173.342 106.25 171.753 105.592 170.581 104.419C169.409 103.247 168.75 101.658 168.75 100C168.75 98.3425 169.409 96.7528 170.581 95.5807C171.753 94.4086 173.342 93.7501 175 93.7501H183.333C184.991 93.7501 186.581 94.4086 187.753 95.5807C188.925 96.7528 189.583 98.3425 189.583 100ZM163.342 45.5001C163.939 44.9238 164.415 44.2344 164.743 43.472C165.071 42.7097 165.244 41.8896 165.252 41.0597C165.259 40.2299 165.101 39.4068 164.788 38.6386C164.474 37.8703 164.01 37.1723 163.423 36.5852C162.837 35.9981 162.139 35.5337 161.371 35.219C160.603 34.9044 159.78 34.7459 158.951 34.7527C158.121 34.7595 157.3 34.9316 156.538 35.2588C155.775 35.5859 155.085 36.0618 154.508 36.6584L148.617 42.5501C148.003 43.1223 147.51 43.8123 147.169 44.5789C146.827 45.3456 146.643 46.1732 146.628 47.0124C146.614 47.8516 146.768 48.6852 147.082 49.4634C147.397 50.2416 147.865 50.9486 148.458 51.5421C149.052 52.1356 149.759 52.6034 150.537 52.9178C151.315 53.2321 152.149 53.3865 152.988 53.3717C153.827 53.3569 154.655 53.1732 155.421 52.8316C156.188 52.49 156.878 51.9975 157.45 51.3834L163.342 45.5001ZM100 168.75C101.658 168.75 103.247 169.409 104.419 170.581C105.592 171.753 106.25 173.342 106.25 175V183.333C106.25 184.991 105.592 186.581 104.419 187.753C103.247 188.925 101.658 189.583 100 189.583C98.3425 189.583 96.7528 188.925 95.5807 187.753C94.4086 186.581 93.7501 184.991 93.7501 183.333V175C93.7501 173.342 94.4086 171.753 95.5807 170.581C96.7528 169.409 98.3425 168.75 100 168.75ZM157.45 148.617C156.878 148.003 156.188 147.51 155.421 147.169C154.655 146.827 153.827 146.643 152.988 146.628C152.149 146.614 151.315 146.768 150.537 147.082C149.759 147.397 149.052 147.865 148.458 148.458C147.865 149.052 147.397 149.759 147.082 150.537C146.768 151.315 146.614 152.149 146.628 152.988C146.643 153.827 146.827 154.655 147.169 155.421C147.51 156.188 148.003 156.878 148.617 157.45L154.508 163.342C155.081 163.956 155.771 164.448 156.537 164.79C157.304 165.132 158.132 165.315 158.971 165.33C159.81 165.345 160.643 165.19 161.422 164.876C162.2 164.562 162.907 164.094 163.5 163.5C164.094 162.907 164.562 162.2 164.876 161.422C165.19 160.643 165.345 159.81 165.33 158.971C165.315 158.132 165.132 157.304 164.79 156.537C164.448 155.771 163.956 155.081 163.342 154.508L157.45 148.617ZM31.2501 100C31.2501 101.658 30.5916 103.247 29.4195 104.419C28.2474 105.592 26.6577 106.25 25.0001 106.25H16.6667C15.0091 106.25 13.4194 105.592 12.2473 104.419C11.0752 103.247 10.4167 101.658 10.4167 100C10.4167 98.3425 11.0752 96.7528 12.2473 95.5807C13.4194 94.4086 15.0091 93.7501 16.6667 93.7501H25.0001C26.6577 93.7501 28.2474 94.4086 29.4195 95.5807C30.5916 96.7528 31.2501 98.3425 31.2501 100ZM51.3834 157.45C52.4874 156.265 53.0884 154.698 53.0599 153.079C53.0313 151.46 52.3754 149.915 51.2303 148.77C50.0852 147.625 48.5403 146.969 46.9211 146.94C45.3019 146.912 43.7349 147.513 42.5501 148.617L36.6584 154.508C35.5544 155.693 34.9534 157.26 34.982 158.879C35.0105 160.499 35.6665 162.043 36.8116 163.189C37.9567 164.334 39.5015 164.99 41.1207 165.018C42.7399 165.047 44.307 164.446 45.4917 163.342L51.3834 157.45Z" fill="#FFF61A"/>
</svg>
