<svg width="200" height="200" viewBox="0 0 200 200" fill="none" xmlns="http://www.w3.org/2000/svg">
<path d="M93.75 31.25V12.5C93.75 10.8424 94.4085 9.25268 95.5806 8.08058C96.7527 6.90848 98.3424 6.25 100 6.25C101.658 6.25 103.247 6.90848 104.419 8.08058C105.592 9.25268 106.25 10.8424 106.25 12.5V31.25C106.25 32.9076 105.592 34.4973 104.419 35.6694C103.247 36.8415 101.658 37.5 100 37.5C98.3424 37.5 96.7527 36.8415 95.5806 35.6694C94.4085 34.4973 93.75 32.9076 93.75 31.25ZM100 50C90.1109 50 80.4439 52.9324 72.2215 58.4265C63.999 63.9206 57.5904 71.7295 53.806 80.8658C50.0216 90.0021 49.0315 100.055 50.9607 109.755C52.89 119.454 57.652 128.363 64.6447 135.355C71.6373 142.348 80.5464 147.11 90.2455 149.039C99.9445 150.969 109.998 149.978 119.134 146.194C128.27 142.41 136.079 136.001 141.573 127.779C147.068 119.556 150 109.889 150 100C149.986 86.7436 144.713 74.0343 135.339 64.6607C125.966 55.287 113.256 50.0145 100 50ZM45.5781 54.4219C46.7509 55.5946 48.3415 56.2535 50 56.2535C51.6585 56.2535 53.2491 55.5946 54.4219 54.4219C55.5946 53.2491 56.2535 51.6585 56.2535 50C56.2535 48.3415 55.5946 46.7509 54.4219 45.5781L41.9219 33.0781C40.7491 31.9054 39.1585 31.2465 37.5 31.2465C35.8415 31.2465 34.2509 31.9054 33.0781 33.0781C31.9054 34.2509 31.2465 35.8415 31.2465 37.5C31.2465 39.1585 31.9054 40.7491 33.0781 41.9219L45.5781 54.4219ZM45.5781 145.578L33.0781 158.078C31.9054 159.251 31.2465 160.841 31.2465 162.5C31.2465 164.159 31.9054 165.749 33.0781 166.922C34.2509 168.095 35.8415 168.753 37.5 168.753C39.1585 168.753 40.7491 168.095 41.9219 166.922L54.4219 154.422C55.0026 153.841 55.4632 153.152 55.7775 152.393C56.0917 151.634 56.2535 150.821 56.2535 150C56.2535 149.179 56.0917 148.366 55.7775 147.607C55.4632 146.848 55.0026 146.159 54.4219 145.578C53.8412 144.997 53.1518 144.537 52.3931 144.223C51.6344 143.908 50.8212 143.747 50 143.747C49.1788 143.747 48.3656 143.908 47.6069 144.223C46.8482 144.537 46.1588 144.997 45.5781 145.578ZM150 56.25C150.821 56.2506 151.634 56.0895 152.393 55.7759C153.152 55.4622 153.841 55.0021 154.422 54.4219L166.922 41.9219C168.095 40.7491 168.753 39.1585 168.753 37.5C168.753 35.8415 168.095 34.2509 166.922 33.0781C165.749 31.9054 164.159 31.2465 162.5 31.2465C160.841 31.2465 159.251 31.9054 158.078 33.0781L145.578 45.5781C144.703 46.4522 144.107 47.5663 143.865 48.7793C143.624 49.9924 143.748 51.2498 144.221 52.3924C144.695 53.5351 145.496 54.5116 146.525 55.1983C147.554 55.8849 148.763 56.251 150 56.25ZM154.422 145.578C153.249 144.405 151.659 143.747 150 143.747C148.341 143.747 146.751 144.405 145.578 145.578C144.405 146.751 143.747 148.341 143.747 150C143.747 151.659 144.405 153.249 145.578 154.422L158.078 166.922C158.659 167.503 159.348 167.963 160.107 168.277C160.866 168.592 161.679 168.753 162.5 168.753C163.321 168.753 164.134 168.592 164.893 168.277C165.652 167.963 166.341 167.503 166.922 166.922C167.503 166.341 167.963 165.652 168.277 164.893C168.592 164.134 168.753 163.321 168.753 162.5C168.753 161.679 168.592 160.866 168.277 160.107C167.963 159.348 167.503 158.659 166.922 158.078L154.422 145.578ZM37.5 100C37.5 98.3424 36.8415 96.7527 35.6694 95.5806C34.4973 94.4085 32.9076 93.75 31.25 93.75H12.5C10.8424 93.75 9.25268 94.4085 8.08058 95.5806C6.90848 96.7527 6.25 98.3424 6.25 100C6.25 101.658 6.90848 103.247 8.08058 104.419C9.25268 105.592 10.8424 106.25 12.5 106.25H31.25C32.9076 106.25 34.4973 105.592 35.6694 104.419C36.8415 103.247 37.5 101.658 37.5 100ZM100 162.5C98.3424 162.5 96.7527 163.158 95.5806 164.331C94.4085 165.503 93.75 167.092 93.75 168.75V187.5C93.75 189.158 94.4085 190.747 95.5806 191.919C96.7527 193.092 98.3424 193.75 100 193.75C101.658 193.75 103.247 193.092 104.419 191.919C105.592 190.747 106.25 189.158 106.25 187.5V168.75C106.25 167.092 105.592 165.503 104.419 164.331C103.247 163.158 101.658 162.5 100 162.5ZM187.5 93.75H168.75C167.092 93.75 165.503 94.4085 164.331 95.5806C163.158 96.7527 162.5 98.3424 162.5 100C162.5 101.658 163.158 103.247 164.331 104.419C165.503 105.592 167.092 106.25 168.75 106.25H187.5C189.158 106.25 190.747 105.592 191.919 104.419C193.092 103.247 193.75 101.658 193.75 100C193.75 98.3424 193.092 96.7527 191.919 95.5806C190.747 94.4085 189.158 93.75 187.5 93.75Z" fill="#FFCC00"/>
</svg>
