<svg width="200" height="200" viewBox="0 0 200 200" fill="none" xmlns="http://www.w3.org/2000/svg">
<path d="M100 12.5C51.6641 12.5 12.5 51.6641 12.5 100C12.5 148.336 51.6641 187.5 100 187.5C148.336 187.5 187.5 148.336 187.5 100C187.5 51.6641 148.336 12.5 100 12.5ZM66.7969 138.238C66.2599 139.154 65.4913 139.912 64.5684 140.437C63.6454 140.962 62.6006 141.234 61.5391 141.227C60.4571 141.236 59.3939 140.944 58.4687 140.383C57.7799 139.984 57.1766 139.452 56.6936 138.819C56.2106 138.186 55.8574 137.464 55.6541 136.695C55.4509 135.925 55.4016 135.122 55.5093 134.334C55.6169 133.545 55.8792 132.785 56.2813 132.098L62.2539 122.168C62.5557 121.655 62.9863 121.231 63.503 120.936C64.0197 120.641 64.6044 120.487 65.1992 120.488H66.082C70.4141 120.488 73.4453 123.094 74.3281 125.617L66.7969 138.238ZM117.363 118.707L78.25 118.75H52.2539C51.436 118.753 50.6259 118.591 49.8728 118.272C49.1197 117.953 48.4392 117.484 47.8727 116.894C47.3061 116.304 46.8653 115.605 46.577 114.84C46.2886 114.074 46.1588 113.259 46.1953 112.441C46.3203 109.16 49.1836 106.676 52.4453 106.676H71.2891L93.6289 68.6484L86.3945 56.3242C84.7656 53.5156 85.4883 49.8125 88.2812 48.0469C88.9698 47.6016 89.7413 47.3001 90.5494 47.1606C91.3574 47.0211 92.1853 47.0464 92.9834 47.235C93.7814 47.4237 94.533 47.7718 95.1931 48.2583C95.8531 48.7449 96.4079 49.3599 96.8242 50.0664L100.691 56.6719H100.734L104.605 50.0664C105.022 49.3636 105.576 48.7519 106.234 48.2677C106.893 47.7836 107.642 47.437 108.437 47.2485C109.232 47.06 110.057 47.0336 110.862 47.1708C111.668 47.3079 112.437 47.6059 113.125 48.0469C115.902 49.8125 116.617 53.5156 114.977 56.3359L107.742 68.6602L100.711 80.6484L85.4414 106.687V106.73H107.945C110.766 106.73 114.301 108.246 115.73 110.684L115.855 110.938C117.117 113.082 117.832 114.555 117.832 116.699C117.812 117.396 117.656 118.081 117.375 118.719L117.363 118.707ZM147.734 118.75H137.145V118.793L144.887 131.961C145.719 133.348 145.974 135.006 145.597 136.579C145.219 138.152 144.239 139.514 142.867 140.371C141.916 140.951 140.824 141.258 139.711 141.258C138.652 141.257 137.612 140.983 136.69 140.461C135.769 139.94 134.998 139.189 134.453 138.281L123.012 118.805L115.902 106.695L106.73 91.0156C105.402 88.7768 104.68 86.2304 104.635 83.6274C104.591 81.0245 105.225 78.4549 106.477 76.1719C108.289 72.9727 109.676 72.1328 109.676 72.1328L130.078 106.641H147.621C150.902 106.641 153.719 109.164 153.871 112.402C153.903 113.226 153.768 114.047 153.474 114.817C153.18 115.586 152.734 116.289 152.162 116.882C151.589 117.475 150.903 117.946 150.145 118.267C149.386 118.588 148.57 118.752 147.746 118.75H147.734Z" fill="#FFCC00"/>
</svg>
