<svg width="100" height="100" viewBox="0 0 100 100" fill="none" xmlns="http://www.w3.org/2000/svg">
<g clip-path="url(#clip0_1_4)">
<path fill-rule="evenodd" clip-rule="evenodd" d="M77.9583 73.1875C81.2788 69.8666 83.1441 65.3628 83.1441 60.6667C83.1441 55.9705 81.2788 51.4667 77.9583 48.1458L50.7083 20.8958C49.9265 20.1145 49.487 19.0547 49.4867 17.9494C49.4863 16.8441 49.925 15.7839 50.7062 15.0021C51.4875 14.2202 52.5474 13.7808 53.6527 13.7804C54.758 13.78 55.8182 14.2187 56.6 15L83.85 42.25C88.7344 47.1333 91.4789 53.7569 91.4796 60.6637C91.4804 67.5705 88.7375 74.1947 83.8542 79.0792C78.9709 83.9636 72.3473 86.708 65.4404 86.7088C58.5336 86.7096 51.9094 83.9666 47.025 79.0833L13.8833 45.9375C10.3664 42.4201 8.39091 37.6496 8.3913 32.6756C8.39169 27.7016 10.368 22.9315 13.8854 19.4146C17.4028 15.8977 22.1733 13.9221 27.1473 13.9225C32.1213 13.9229 36.8914 15.8992 40.4083 19.4167L73.5458 52.5542C75.6441 54.7152 76.8078 57.6151 76.7854 60.6272C76.763 63.6392 75.5563 66.5215 73.4261 68.6511C71.296 70.7807 68.4134 71.9866 65.4013 72.0083C62.3893 72.0299 59.4897 70.8655 57.3292 68.7667L27.1375 38.5708C26.3557 37.7895 25.9162 36.7297 25.9158 35.6244C25.9154 34.5191 26.3541 33.4589 27.1354 32.6771C27.9167 31.8952 28.9766 31.4558 30.0819 31.4554C31.1871 31.455 32.2473 31.8937 33.0292 32.675L63.225 62.8708C63.8118 63.4582 64.6079 63.7884 65.4381 63.7887C66.2683 63.7891 67.0647 63.4597 67.6521 62.8729C68.2394 62.2861 68.5696 61.49 68.57 60.6598C68.5704 59.8296 68.241 59.0332 67.6542 58.4458L34.5167 25.3083C33.5493 24.3404 32.4007 23.5724 31.1365 23.0484C29.8723 22.5243 28.5173 22.2544 27.1488 22.254C25.7803 22.2536 24.4251 22.5228 23.1606 23.0461C21.8961 23.5695 20.7471 24.3368 19.7792 25.3042C17.8243 27.2579 16.7256 29.9082 16.7248 32.672C16.7241 35.4359 17.8212 38.0868 19.775 40.0417L52.9167 73.1833C56.2376 76.5038 60.7414 78.3691 65.4375 78.3691C70.1336 78.3691 74.6374 76.5038 77.9583 73.1833V73.1875Z" fill="#2D333B"/>
</g>
<defs>
<clipPath id="clip0_1_4">
<rect width="100" height="100" fill="white"/>
</clipPath>
</defs>
</svg>
