<svg width="200" height="200" viewBox="0 0 200 200" fill="none" xmlns="http://www.w3.org/2000/svg">
<rect width="200" height="200" rx="100" fill="#FFCC00"/>
<path d="M158.333 91.6667H59.4999L89.7499 55.3333C91.1644 53.6315 91.8449 51.4375 91.6418 49.234C91.4386 47.0304 90.3684 44.9978 88.6666 43.5834C86.9648 42.1689 84.7708 41.4883 82.5672 41.6915C80.3637 41.8947 78.3311 42.9649 76.9166 44.6667L35.2499 94.6667C34.9696 95.0644 34.7189 95.4822 34.4999 95.9167C34.4999 96.3334 34.4999 96.5834 33.9166 97C33.5389 97.9555 33.3411 98.9726 33.3333 100C33.3411 101.027 33.5389 102.045 33.9166 103C33.9166 103.417 33.9166 103.667 34.4999 104.083C34.7189 104.518 34.9696 104.936 35.2499 105.333L76.9166 155.333C77.7001 156.274 78.6813 157.031 79.7903 157.549C80.8993 158.068 82.109 158.335 83.3333 158.333C85.2804 158.337 87.1673 157.659 88.6666 156.417C89.5104 155.717 90.2079 154.858 90.7192 153.888C91.2305 152.919 91.5454 151.858 91.6461 150.766C91.7467 149.675 91.631 148.574 91.3056 147.528C90.9803 146.481 90.4516 145.509 89.7499 144.667L59.4999 108.333H158.333C160.543 108.333 162.663 107.455 164.226 105.893C165.789 104.33 166.667 102.21 166.667 100C166.667 97.7899 165.789 95.6703 164.226 94.1075C162.663 92.5447 160.543 91.6667 158.333 91.6667Z" fill="#000080"/>
</svg>
