<svg width="200" height="200" viewBox="0 0 200 200" fill="none" xmlns="http://www.w3.org/2000/svg">
<path d="M187.5 49.9999C187.5 43.3695 184.866 37.0107 180.178 32.3222C175.489 27.6338 169.13 24.9999 162.5 24.9999H156.25V18.9257C156.25 15.5624 153.664 12.6757 150.301 12.5077C149.456 12.467 148.611 12.5983 147.818 12.8936C147.026 13.1889 146.301 13.6421 145.688 14.2258C145.076 14.8094 144.588 15.5113 144.255 16.289C143.922 17.0667 143.75 17.9039 143.75 18.7499V24.9999H56.25V18.9257C56.25 15.5624 53.6641 12.6757 50.3008 12.5077C49.4557 12.467 48.6112 12.5983 47.8184 12.8936C47.0255 13.1889 46.3009 13.6421 45.6884 14.2258C45.0759 14.8094 44.5883 15.5113 44.2551 16.289C43.9219 17.0667 43.7501 17.9039 43.75 18.7499V24.9999H37.5C30.8696 24.9999 24.5107 27.6338 19.8223 32.3222C15.1339 37.0107 12.5 43.3695 12.5 49.9999V54.6874C12.5 55.1018 12.6646 55.4992 12.9576 55.7923C13.2507 56.0853 13.6481 56.2499 14.0625 56.2499H185.938C186.352 56.2499 186.749 56.0853 187.042 55.7923C187.335 55.4992 187.5 55.1018 187.5 54.6874V49.9999ZM12.5 162.5C12.5 169.13 15.1339 175.489 19.8223 180.178C24.5107 184.866 30.8696 187.5 37.5 187.5H162.5C169.13 187.5 175.489 184.866 180.178 180.178C184.866 175.489 187.5 169.13 187.5 162.5V69.9218C187.5 69.611 187.377 69.3129 187.157 69.0931C186.937 68.8734 186.639 68.7499 186.328 68.7499H13.6719C13.3611 68.7499 13.063 68.8734 12.8432 69.0931C12.6235 69.3129 12.5 69.611 12.5 69.9218V162.5ZM146.875 81.2499C148.729 81.2499 150.542 81.7997 152.083 82.8299C153.625 83.86 154.827 85.3242 155.536 87.0373C156.246 88.7503 156.432 90.6353 156.07 92.4539C155.708 94.2725 154.815 95.9429 153.504 97.254C152.193 98.5652 150.523 99.458 148.704 99.8198C146.885 100.182 145 99.9959 143.287 99.2863C141.574 98.5767 140.11 97.3751 139.08 95.8334C138.05 94.2917 137.5 92.4791 137.5 90.6249C137.5 88.1385 138.488 85.7539 140.246 83.9958C142.004 82.2376 144.389 81.2499 146.875 81.2499ZM146.875 112.5C148.729 112.5 150.542 113.05 152.083 114.08C153.625 115.11 154.827 116.574 155.536 118.287C156.246 120 156.432 121.885 156.07 123.704C155.708 125.522 154.815 127.193 153.504 128.504C152.193 129.815 150.523 130.708 148.704 131.07C146.885 131.432 145 131.246 143.287 130.536C141.574 129.827 140.11 128.625 139.08 127.083C138.05 125.542 137.5 123.729 137.5 121.875C137.5 119.389 138.488 117.004 140.246 115.246C142.004 113.488 144.389 112.5 146.875 112.5ZM115.625 81.2499C117.479 81.2499 119.292 81.7997 120.833 82.8299C122.375 83.86 123.577 85.3242 124.286 87.0373C124.996 88.7503 125.182 90.6353 124.82 92.4539C124.458 94.2725 123.565 95.9429 122.254 97.254C120.943 98.5652 119.273 99.458 117.454 99.8198C115.635 100.182 113.75 99.9959 112.037 99.2863C110.324 98.5767 108.86 97.3751 107.83 95.8334C106.8 94.2917 106.25 92.4791 106.25 90.6249C106.25 88.1385 107.238 85.7539 108.996 83.9958C110.754 82.2376 113.139 81.2499 115.625 81.2499ZM115.625 112.5C117.479 112.5 119.292 113.05 120.833 114.08C122.375 115.11 123.577 116.574 124.286 118.287C124.996 120 125.182 121.885 124.82 123.704C124.458 125.522 123.565 127.193 122.254 128.504C120.943 129.815 119.273 130.708 117.454 131.07C115.635 131.432 113.75 131.246 112.037 130.536C110.324 129.827 108.86 128.625 107.83 127.083C106.8 125.542 106.25 123.729 106.25 121.875C106.25 119.389 107.238 117.004 108.996 115.246C110.754 113.488 113.139 112.5 115.625 112.5ZM115.625 143.75C117.479 143.75 119.292 144.3 120.833 145.33C122.375 146.36 123.577 147.824 124.286 149.537C124.996 151.25 125.182 153.135 124.82 154.954C124.458 156.772 123.565 158.443 122.254 159.754C120.943 161.065 119.273 161.958 117.454 162.32C115.635 162.682 113.75 162.496 112.037 161.786C110.324 161.077 108.86 159.875 107.83 158.333C106.8 156.792 106.25 154.979 106.25 153.125C106.25 150.639 107.238 148.254 108.996 146.496C110.754 144.738 113.139 143.75 115.625 143.75ZM84.375 112.5C86.2292 112.5 88.0418 113.05 89.5835 114.08C91.1252 115.11 92.3268 116.574 93.0364 118.287C93.7459 120 93.9316 121.885 93.5699 123.704C93.2081 125.522 92.3152 127.193 91.0041 128.504C89.693 129.815 88.0225 130.708 86.204 131.07C84.3854 131.432 82.5004 131.246 80.7873 130.536C79.0743 129.827 77.6101 128.625 76.58 127.083C75.5498 125.542 75 123.729 75 121.875C75 119.389 75.9877 117.004 77.7459 115.246C79.504 113.488 81.8886 112.5 84.375 112.5ZM84.375 143.75C86.2292 143.75 88.0418 144.3 89.5835 145.33C91.1252 146.36 92.3268 147.824 93.0364 149.537C93.7459 151.25 93.9316 153.135 93.5699 154.954C93.2081 156.772 92.3152 158.443 91.0041 159.754C89.693 161.065 88.0225 161.958 86.204 162.32C84.3854 162.682 82.5004 162.496 80.7873 161.786C79.0743 161.077 77.6101 159.875 76.58 158.333C75.5498 156.792 75 154.979 75 153.125C75 150.639 75.9877 148.254 77.7459 146.496C79.504 144.738 81.8886 143.75 84.375 143.75ZM53.125 112.5C54.9792 112.5 56.7918 113.05 58.3335 114.08C59.8752 115.11 61.0768 116.574 61.7864 118.287C62.4959 120 62.6816 121.885 62.3199 123.704C61.9581 125.522 61.0652 127.193 59.7541 128.504C58.443 129.815 56.7725 130.708 54.954 131.07C53.1354 131.432 51.2504 131.246 49.5373 130.536C47.8243 129.827 46.3601 128.625 45.33 127.083C44.2998 125.542 43.75 123.729 43.75 121.875C43.75 119.389 44.7377 117.004 46.4959 115.246C48.254 113.488 50.6386 112.5 53.125 112.5ZM53.125 143.75C54.9792 143.75 56.7918 144.3 58.3335 145.33C59.8752 146.36 61.0768 147.824 61.7864 149.537C62.4959 151.25 62.6816 153.135 62.3199 154.954C61.9581 156.772 61.0652 158.443 59.7541 159.754C58.443 161.065 56.7725 161.958 54.954 162.32C53.1354 162.682 51.2504 162.496 49.5373 161.786C47.8243 161.077 46.3601 159.875 45.33 158.333C44.2998 156.792 43.75 154.979 43.75 153.125C43.75 150.639 44.7377 148.254 46.4959 146.496C48.254 144.738 50.6386 143.75 53.125 143.75Z" fill="#FFCC00"/>
</svg>
