<svg width="200" height="200" viewBox="0 0 200 200" fill="none" xmlns="http://www.w3.org/2000/svg">
<path d="M110.573 30.5733C113.074 28.0737 116.465 26.6695 120 26.6695C123.536 26.6695 126.926 28.0737 129.427 30.5733L189.427 90.5733C191.926 93.0737 193.331 96.4645 193.331 100C193.331 103.536 191.926 106.926 189.427 109.427L129.427 169.427C126.912 171.855 123.544 173.199 120.048 173.169C116.552 173.139 113.208 171.736 110.736 169.264C108.264 166.792 106.861 163.448 106.831 159.952C106.801 156.456 108.145 153.088 110.573 150.573L146.667 113.333H20.0001C16.4639 113.333 13.0725 111.929 10.572 109.428C8.07151 106.928 6.66675 103.536 6.66675 100C6.66675 96.4638 8.07151 93.0724 10.572 90.5719C13.0725 88.0714 16.4639 86.6667 20.0001 86.6667H146.667L110.573 49.4267C108.074 46.9263 106.67 43.5355 106.67 40C106.67 36.4645 108.074 33.0737 110.573 30.5733Z" fill="#FFCC00"/>
</svg>
