<svg width="205" height="206" viewBox="0 0 205 206" fill="none" xmlns="http://www.w3.org/2000/svg">
<rect y="6" width="200" height="200" rx="100" fill="#FFCC00"/>
<g clip-path="url(#clip0_20_4)">
<path d="M100.397 33C90.0247 33 80.0771 37.1634 72.7426 44.5744C65.4081 51.9853 61.2877 62.0367 61.2877 72.5174C61.2877 82.9981 65.4081 93.0495 72.7426 100.46C80.0771 107.871 90.0247 112.035 100.397 112.035C110.77 112.035 120.717 107.871 128.052 100.46C135.386 93.0495 139.507 82.9981 139.507 72.5174C139.507 62.0367 135.386 51.9853 128.052 44.5744C120.717 37.1634 110.77 33 100.397 33ZM100.397 119.938C105.023 119.949 109.518 120.265 113.882 120.887C115.35 121.094 116.729 121.718 117.859 122.687C118.99 123.656 119.824 124.929 120.266 126.358C120.708 127.788 120.739 129.314 120.355 130.761C119.971 132.207 119.188 133.514 118.098 134.528C111.661 140.487 106.731 147.919 103.723 156.2C100.716 164.482 99.7172 173.371 100.812 182.123C100.95 183.247 100.847 184.389 100.51 185.47C100.174 186.551 99.6109 187.546 98.8601 188.387C98.1093 189.229 97.1882 189.898 96.1592 190.349C95.1301 190.799 94.0173 191.021 92.896 190.998C77.174 190.682 62.4688 189.291 51.4868 185.893C45.9958 184.194 40.8177 181.807 36.8911 178.29C32.7377 174.575 30 169.572 30 163.407C30 157.187 32.8002 151.37 36.6017 146.502C40.4657 141.562 45.8081 137.018 52.0734 133.145C64.612 125.431 81.6637 119.938 100.397 119.938ZM180.275 128.11C183.941 131.816 186 136.841 186 142.08C186 147.319 183.941 152.344 180.275 156.049L153.539 183.063C151.745 184.876 149.418 186.051 146.906 186.414L128.846 189.023C127.642 189.197 126.414 189.086 125.261 188.698C124.107 188.31 123.059 187.655 122.199 186.786C121.34 185.916 120.692 184.857 120.309 183.691C119.926 182.524 119.817 181.284 119.991 180.068L122.572 161.827C122.93 159.286 124.094 156.932 125.889 155.117L152.624 128.103C156.291 124.398 161.264 122.318 166.449 122.318C171.635 122.318 176.608 124.398 180.275 128.103V128.11Z" fill="#2D333B"/>
</g>
<defs>
<clipPath id="clip0_20_4">
<rect width="200" height="200" fill="white" transform="translate(5)"/>
</clipPath>
</defs>
</svg>
