<svg width="200" height="160" viewBox="0 0 200 160" fill="none" xmlns="http://www.w3.org/2000/svg">
<mask id="mask0_155_9" style="mask-type:alpha" maskUnits="userSpaceOnUse" x="0" y="0" width="200" height="160">
<g clip-path="url(#clip0_155_9)">
<path d="M194.481 47.875L107.312 21.0938C102.562 19.6344 97.4374 19.6344 92.6905 21.0938L5.51865 47.875C-1.8376 50.1344 -1.8376 59.8625 5.51865 62.1219L20.7155 66.7907C17.3812 70.9125 15.3312 75.9407 15.128 81.4469C12.1187 83.1719 9.9999 86.2844 9.9999 90C9.9999 93.3688 11.7749 96.2032 14.3312 98.0157L6.35303 133.916C5.65928 137.038 8.03428 140 11.2312 140H28.7655C31.9655 140 34.3405 137.038 33.6468 133.916L25.6687 98.0157C28.2249 96.2032 29.9999 93.3688 29.9999 90C29.9999 86.3844 27.978 83.3594 25.1062 81.6032C25.3437 76.9094 27.7437 72.7594 31.5718 70.1282L92.6874 88.9063C95.5187 89.775 100.95 90.8594 107.309 88.9063L194.481 62.1251C201.841 59.8626 201.841 50.1375 194.481 47.875ZM110.247 98.4657C101.331 101.203 93.7343 99.6907 89.7499 98.4657L44.4311 84.5438L39.9999 120C39.9999 131.047 66.8624 140 99.9999 140C133.137 140 160 131.047 160 120L155.569 84.5407L110.247 98.4657Z" fill="#000080"/>
</g>
</mask>
<g mask="url(#mask0_155_9)">
<rect y="-20" width="200" height="200" fill="#CFD6E7"/>
</g>
<defs>
<clipPath id="clip0_155_9">
<rect width="200" height="160" fill="white"/>
</clipPath>
</defs>
</svg>
