<svg width="200" height="200" viewBox="0 0 200 200" fill="none" xmlns="http://www.w3.org/2000/svg">
<path d="M104.503 7C73.1744 7 47.5 32.5977 47.5 63.84C47.5 75.9453 51.3665 87.196 57.9096 96.4426L97.5459 164.964C103.097 172.217 106.787 170.839 111.402 164.581L155.122 90.1831C156.003 88.5851 156.697 86.8837 157.3 85.1459C160.074 78.3853 161.501 71.1477 161.5 63.84C161.502 32.5977 135.835 7 104.503 7ZM104.503 33.6324C121.375 33.6324 134.791 47.0175 134.791 63.84C134.791 80.6625 121.375 94.0419 104.503 94.0419C87.6325 94.0419 74.2109 80.6644 74.2109 63.84C74.2109 47.0175 87.6325 33.6343 104.503 33.6343" fill="#FFCC00"/>
<path d="M142.276 93.816L142.183 94.061C142.212 93.9872 142.236 93.9113 142.265 93.8374L142.276 93.816ZM132.428 141.35L129.739 144.675C133.375 145.115 136.894 145.63 140.19 146.254L129.536 149.41L143.756 153.192L154.355 149.85C160.865 152.033 169.88 154.703 172.867 157.738H151.614L153.725 163.914H175.779C175.713 167.394 169.491 170.222 163.549 172.512L148.477 169.253L134.277 174.342L149.444 177.803C140.589 180.214 125.721 181.68 113.413 182.355L112.896 175.277H98.106L97.5869 182.355C85.2784 181.68 70.413 180.216 61.556 177.805L76.7247 174.342L62.5243 169.253L47.4509 172.512C41.5942 170.733 35.2883 167.394 35.2222 163.914H57.2782L59.3899 157.738H38.1369C41.1236 154.703 50.1381 152.033 56.6482 149.85L67.2474 153.192L81.4673 149.41L70.8136 146.254C74.2541 145.618 77.7145 145.095 81.1892 144.685L78.5389 141.354C49.7901 144.343 25.8965 150.707 19.6315 160.758C9.63888 176.776 46.502 192.89 104.276 193.141C105.135 193.184 105.983 193.153 106.784 193.141C164.525 192.877 201.355 176.769 191.37 160.758C185.101 150.703 161.194 144.337 132.428 141.35Z" fill="#FFCC00"/>
</svg>
