<svg width="200" height="200" viewBox="0 0 200 200" fill="none" xmlns="http://www.w3.org/2000/svg">
<rect width="200" height="200" rx="100" fill="#ffcc00"/>
<path fill-rule="evenodd" clip-rule="evenodd" d="M71.5 37.5C66.5272 37.5 61.7581 39.4754 58.2417 42.9917C54.7254 46.5081 52.75 51.2772 52.75 56.25V143.75C52.75 148.723 54.7254 153.492 58.2417 157.008C61.7581 160.525 66.5272 162.5 71.5 162.5H109C113.973 162.5 118.742 160.525 122.258 157.008C125.775 153.492 127.75 148.723 127.75 143.75V56.25C127.75 51.2772 125.775 46.5081 122.258 42.9917C118.742 39.4754 113.973 37.5 109 37.5H71.5ZM135.831 70.5812C137.003 69.4096 138.593 68.7513 140.25 68.7513C141.907 68.7513 143.497 69.4096 144.669 70.5812L169.669 95.5812C170.84 96.7533 171.499 98.3427 171.499 100C171.499 101.657 170.84 103.247 169.669 104.419L144.669 129.419C143.49 130.557 141.911 131.187 140.272 131.173C138.634 131.159 137.066 130.501 135.907 129.343C134.749 128.184 134.091 126.616 134.077 124.977C134.063 123.339 134.693 121.76 135.831 120.581L150.162 106.25H96.5C94.8424 106.25 93.2527 105.592 92.0806 104.419C90.9085 103.247 90.25 101.658 90.25 100C90.25 98.3424 90.9085 96.7527 92.0806 95.5806C93.2527 94.4085 94.8424 93.75 96.5 93.75H150.162L135.831 79.4187C134.66 78.2467 134.001 76.6573 134.001 75C134.001 73.3427 134.66 71.7533 135.831 70.5812Z" fill="white"/>
</svg>
