<svg width="200" height="200" viewBox="0 0 200 200" fill="none" xmlns="http://www.w3.org/2000/svg">
<rect width="200" height="200" rx="100" fill="#FFCC00"/>
<path fill-rule="evenodd" clip-rule="evenodd" d="M35.1562 100C35.1562 102.587 37.2562 104.687 39.8438 104.687H108.425L96.1688 115.187C95.7009 115.588 95.3166 116.077 95.0376 116.626C94.7587 117.175 94.5906 117.774 94.543 118.388C94.4954 119.002 94.5692 119.619 94.7602 120.204C94.9513 120.79 95.2557 121.332 95.6562 121.8C96.0568 122.268 96.5455 122.652 97.0946 122.931C97.6437 123.21 98.2423 123.378 98.8564 123.426C99.4704 123.473 100.088 123.399 100.673 123.208C101.259 123.017 101.801 122.713 102.269 122.312L124.144 103.562C124.658 103.122 125.071 102.576 125.355 101.961C125.638 101.346 125.785 100.677 125.785 100C125.785 99.3229 125.638 98.6538 125.355 98.0388C125.071 97.4238 124.658 96.8775 124.144 96.4375L102.269 77.6875C101.324 76.8786 100.096 76.4781 98.8564 76.5742C97.6163 76.6703 96.4652 77.2551 95.6562 78.2C94.8473 79.1448 94.4469 80.3723 94.543 81.6123C94.6391 82.8524 95.2239 84.0035 96.1688 84.8125L108.419 95.3125H39.85C38.6068 95.3125 37.4145 95.8063 36.5354 96.6854C35.6564 97.5645 35.1625 98.7568 35.1625 100" fill="#0F1117"/>
<path d="M83.5938 85.9375H85.9563C84.9237 83.0172 84.8843 79.8377 85.844 76.8927C86.8037 73.9476 88.709 71.4019 91.2638 69.6507C93.8187 67.8994 96.8803 67.0407 99.9733 67.2079C103.066 67.375 106.017 68.5586 108.369 70.575L130.244 89.325C131.783 90.6452 133.019 92.2827 133.866 94.1253C134.713 95.9679 135.152 97.972 135.152 100C135.152 102.028 134.713 104.032 133.866 105.875C133.019 107.717 131.783 109.355 130.244 110.675L108.369 129.425C106.017 131.441 103.066 132.625 99.9733 132.792C96.8803 132.959 93.8187 132.101 91.2638 130.349C88.709 128.598 86.8037 126.052 85.844 123.107C84.8843 120.162 84.9237 116.983 85.9563 114.062H83.5938V125C83.5938 142.675 83.5937 151.519 89.0875 157.006C94.575 162.5 103.419 162.5 121.094 162.5H127.344C145.019 162.5 153.863 162.5 159.35 157.006C164.844 151.519 164.844 142.675 164.844 125V75C164.844 57.325 164.844 48.4812 159.35 42.9937C153.863 37.5 145.019 37.5 127.344 37.5H121.094C103.419 37.5 94.575 37.5 89.0875 42.9937C83.5937 48.4812 83.5938 57.325 83.5938 75V85.9375Z" fill="#0F1117"/>
</svg>
