<svg width="200" height="200" viewBox="0 0 200 200" fill="none" xmlns="http://www.w3.org/2000/svg">
<path d="M99.9999 104.167C92.2644 104.167 84.8458 107.24 79.376 112.709C73.9062 118.179 70.8333 125.598 70.8333 133.333C70.8333 141.069 73.9062 148.487 79.376 153.957C84.8458 159.427 92.2644 162.5 99.9999 162.5C107.735 162.5 115.154 159.427 120.624 153.957C126.094 148.487 129.167 141.069 129.167 133.333C129.167 125.598 126.094 118.179 120.624 112.709C115.154 107.24 107.735 104.167 99.9999 104.167ZM87.4999 133.333C87.4999 130.018 88.8169 126.839 91.1611 124.494C93.5053 122.15 96.6847 120.833 99.9999 120.833C103.315 120.833 106.495 122.15 108.839 124.494C111.183 126.839 112.5 130.018 112.5 133.333C112.5 136.648 111.183 139.828 108.839 142.172C106.495 144.516 103.315 145.833 99.9999 145.833C96.6847 145.833 93.5053 144.516 91.1611 142.172C88.8169 139.828 87.4999 136.648 87.4999 133.333Z" fill="#FFCC00"/>
<path d="M146.05 42.6334L119.558 5.4917L22.15 83.3084L16.75 83.25V83.3334H12.5V183.333H187.5V83.3334H179.483L163.533 36.675L146.05 42.6334ZM161.875 83.3334H78.3083L140.55 62.1167L153.233 58.0584L161.875 83.3334ZM129.583 48.25L65.3333 70.15L116.217 29.5L129.583 48.25ZM29.1667 151.408V115.242C32.6825 113.996 35.8759 111.981 38.5141 109.344C41.1524 106.707 43.1689 103.515 44.4167 100H155.583C156.831 103.516 158.847 106.71 161.485 109.348C164.123 111.987 167.317 114.003 170.833 115.25V151.417C167.317 152.664 164.123 154.68 161.485 157.318C158.847 159.957 156.831 163.15 155.583 166.667H44.4333C43.1849 163.147 41.1664 159.951 38.5252 157.311C35.884 154.672 32.6867 152.655 29.1667 151.408Z" fill="#FFCC00"/>
</svg>
