<svg width="200" height="200" viewBox="0 0 200 200" fill="none" xmlns="http://www.w3.org/2000/svg">
<path d="M133.837 179.55C136.181 177.206 137.497 174.027 137.497 170.713C137.497 167.398 136.181 164.219 133.837 161.875L71.9625 100L133.837 38.125C136.114 35.7675 137.374 32.6099 137.346 29.3325C137.317 26.055 136.003 22.9199 133.685 20.6023C131.368 18.2847 128.232 16.9701 124.955 16.9416C121.678 16.9131 118.52 18.173 116.162 20.45L45.45 91.1625C43.1066 93.5066 41.7902 96.6854 41.7902 100C41.7902 103.315 43.1066 106.493 45.45 108.837L116.162 179.55C118.507 181.893 121.685 183.21 125 183.21C128.315 183.21 131.493 181.893 133.837 179.55Z" fill="#FFCC00"/>
</svg>
