<svg width="200" height="200" viewBox="0 0 200 200" fill="none" xmlns="http://www.w3.org/2000/svg">
<rect width="200" height="200" rx="100" fill="#FFCC00"/>
<g clip-path="url(#clip0_12_13)">
<path d="M100 37.5C88.3968 37.5 77.2688 42.1094 69.0641 50.3141C60.8594 58.5188 56.25 69.6468 56.25 81.25V103.3C56.2509 104.27 56.0262 105.226 55.5937 106.094L44.8625 127.55C44.3383 128.598 44.0908 129.763 44.1434 130.934C44.1961 132.105 44.5472 133.243 45.1634 134.24C45.7796 135.237 46.6404 136.059 47.6642 136.63C48.6879 137.201 49.8405 137.5 51.0125 137.5H148.987C150.16 137.5 151.312 137.201 152.336 136.63C153.36 136.059 154.22 135.237 154.837 134.24C155.453 133.243 155.804 132.105 155.857 130.934C155.909 129.763 155.662 128.598 155.138 127.55L144.413 106.094C143.978 105.227 143.751 104.27 143.75 103.3V81.25C143.75 69.6468 139.141 58.5188 130.936 50.3141C122.731 42.1094 111.603 37.5 100 37.5ZM100 156.25C96.1209 156.252 92.3367 155.051 89.1689 152.812C86.001 150.573 83.6055 147.407 82.3125 143.75H117.687C116.394 147.407 113.999 150.573 110.831 152.812C107.663 155.051 103.879 156.252 100 156.25Z" fill="#2D333B"/>
</g>
<defs>
<clipPath id="clip0_12_13">
<rect width="150" height="150" fill="white" transform="translate(25 25)"/>
</clipPath>
</defs>
</svg>
