<svg width="200" height="200" viewBox="0 0 200 200" fill="none" xmlns="http://www.w3.org/2000/svg">
<path fill-rule="evenodd" clip-rule="evenodd" d="M74.5 13C68.6984 13 63.1344 15.3047 59.032 19.407C54.9297 23.5094 52.625 29.0734 52.625 34.875V50.5H37C30.3696 50.5 24.0107 53.1339 19.3223 57.8223C14.6339 62.5107 12 68.8696 12 75.5V163C12 169.63 14.6339 175.989 19.3223 180.678C24.0107 185.366 30.3696 188 37 188H162C168.63 188 174.989 185.366 179.678 180.678C184.366 175.989 187 169.63 187 163V75.5C187 68.8696 184.366 62.5107 179.678 57.8223C174.989 53.1339 168.63 50.5 162 50.5H146.375V34.875C146.375 29.0734 144.07 23.5094 139.968 19.407C135.866 15.3047 130.302 13 124.5 13H74.5ZM127.625 50.5V34.875C127.625 34.0462 127.296 33.2513 126.71 32.6653C126.124 32.0792 125.329 31.75 124.5 31.75H74.5C73.6712 31.75 72.8763 32.0792 72.2903 32.6653C71.7042 33.2513 71.375 34.0462 71.375 34.875V50.5H127.625ZM37 69.25H162C163.658 69.25 165.247 69.9085 166.419 71.0806C167.592 72.2527 168.25 73.8424 168.25 75.5V88H30.75V75.5C30.75 73.8424 31.4085 72.2527 32.5806 71.0806C33.7527 69.9085 35.3424 69.25 37 69.25ZM30.75 106.75V163C30.75 164.658 31.4085 166.247 32.5806 167.419C33.7527 168.592 35.3424 169.25 37 169.25H162C163.658 169.25 165.247 168.592 166.419 167.419C167.592 166.247 168.25 164.658 168.25 163V106.75H112L100.5 130.5L87 106.75H30.75Z" fill="#FFCC00"/>
</svg>
