<svg width="200" height="200" viewBox="0 0 200 200" fill="none" xmlns="http://www.w3.org/2000/svg">
<path fill-rule="evenodd" clip-rule="evenodd" d="M100 175C90.1509 175 80.3982 173.06 71.2987 169.291C62.1993 165.522 53.9314 159.997 46.967 153.033C40.0026 146.069 34.4781 137.801 30.709 128.701C26.9399 119.602 25 109.849 25 100C25 90.1509 26.9399 80.3982 30.709 71.2987C34.4781 62.1993 40.0026 53.9314 46.967 46.967C53.9314 40.0026 62.1993 34.4781 71.2987 30.709C80.3982 26.9399 90.1509 25 100 25C119.891 25 138.968 32.9018 153.033 46.967C167.098 61.0322 175 80.1088 175 100C175 119.891 167.098 138.968 153.033 153.033C138.968 167.098 119.891 175 100 175ZM100 58.3333C97.7899 58.3333 95.6702 59.2113 94.1074 60.7741C92.5446 62.3369 91.6667 64.4565 91.6667 66.6667C91.6667 68.8768 92.5446 70.9964 94.1074 72.5592C95.6702 74.122 97.7899 75 100 75H100.083C102.293 75 104.413 74.122 105.976 72.5592C107.539 70.9964 108.417 68.8768 108.417 66.6667C108.417 64.4565 107.539 62.3369 105.976 60.7741C104.413 59.2113 102.293 58.3333 100.083 58.3333H100ZM87.5 91.6667C85.2899 91.6667 83.1702 92.5446 81.6074 94.1074C80.0446 95.6702 79.1667 97.7899 79.1667 100C79.1667 102.21 80.0446 104.33 81.6074 105.893C83.1702 107.455 85.2899 108.333 87.5 108.333H91.6667V133.333C91.6667 135.543 92.5446 137.663 94.1074 139.226C95.6702 140.789 97.7899 141.667 100 141.667H116.667C118.877 141.667 120.996 140.789 122.559 139.226C124.122 137.663 125 135.543 125 133.333C125 131.123 124.122 129.004 122.559 127.441C120.996 125.878 118.877 125 116.667 125H108.333V100C108.333 97.7899 107.455 95.6702 105.893 94.1074C104.33 92.5446 102.21 91.6667 100 91.6667H87.5Z" fill="#FFCC00"/>
</svg>
