<svg width="200" height="200" viewBox="0 0 200 200" fill="none" xmlns="http://www.w3.org/2000/svg">
<path fill-rule="evenodd" clip-rule="evenodd" d="M100 25C101.248 25.0008 102.481 25.282 103.606 25.8229C104.731 26.3638 105.72 27.1505 106.5 28.125L139.833 69.7917C140.558 70.6405 141.105 71.6264 141.442 72.6907C141.778 73.755 141.897 74.8761 141.792 75.9874C141.687 77.0987 141.36 78.1776 140.83 79.1599C140.3 80.1423 139.578 81.0082 138.707 81.7062C137.836 82.4042 136.833 82.9201 135.759 83.2232C134.685 83.5264 133.56 83.6106 132.453 83.4709C131.346 83.3311 130.277 82.9704 129.312 82.4099C128.347 81.8495 127.504 81.1008 126.833 80.2083L108.333 57.0833V116.667C108.333 118.877 107.455 120.996 105.893 122.559C104.33 124.122 102.21 125 100 125C97.7899 125 95.6702 124.122 94.1074 122.559C92.5446 120.996 91.6667 118.877 91.6667 116.667V57.0833L73.1667 80.2167C72.4962 81.1091 71.6533 81.8578 70.6879 82.4183C69.7226 82.9787 68.6544 83.3395 67.547 83.4792C66.4395 83.6189 65.3152 83.5347 64.2409 83.2316C63.1666 82.9284 62.1642 82.4126 61.2931 81.7146C60.422 81.0166 59.7 80.1507 59.17 79.1683C58.6399 78.1859 58.3127 77.107 58.2076 75.9957C58.1026 74.8844 58.2218 73.7634 58.5584 72.6991C58.8949 71.6347 59.4418 70.6489 60.1667 69.8L93.5 28.1333C94.2794 27.1573 95.2682 26.369 96.3933 25.8267C97.5184 25.2843 98.751 25.0018 100 25ZM75 116.667V108.333H41.6667C37.2464 108.333 33.0072 110.089 29.8816 113.215C26.7559 116.34 25 120.58 25 125V158.333C25 162.754 26.7559 166.993 29.8816 170.118C33.0072 173.244 37.2464 175 41.6667 175H158.333C162.754 175 166.993 173.244 170.118 170.118C173.244 166.993 175 162.754 175 158.333V125C175 120.58 173.244 116.34 170.118 113.215C166.993 110.089 162.754 108.333 158.333 108.333H125V116.667C125 123.297 122.366 129.656 117.678 134.344C112.989 139.033 106.63 141.667 100 141.667C93.3696 141.667 87.0107 139.033 82.3223 134.344C77.6339 129.656 75 123.297 75 116.667ZM141.667 133.333C139.457 133.333 137.337 134.211 135.774 135.774C134.211 137.337 133.333 139.457 133.333 141.667C133.333 143.877 134.211 145.996 135.774 147.559C137.337 149.122 139.457 150 141.667 150H141.75C143.96 150 146.08 149.122 147.643 147.559C149.205 145.996 150.083 143.877 150.083 141.667C150.083 139.457 149.205 137.337 147.643 135.774C146.08 134.211 143.96 133.333 141.75 133.333H141.667Z" fill="#FFCC00"/>
</svg>
