<svg width="220" height="220" viewBox="0 0 220 220" fill="none" xmlns="http://www.w3.org/2000/svg">
<path d="M110 213.125C166.954 213.125 213.125 166.954 213.125 110C213.125 53.0456 166.954 6.875 110 6.875C53.0456 6.875 6.875 53.0456 6.875 110C6.875 166.954 53.0456 213.125 110 213.125Z" fill="#F42F4C"/>
<path d="M80.0937 151.25L91.4375 117.219L61.875 95.9062H98.6563L110 61.875L121.344 95.9062H158.125L128.219 116.875L139.562 150.906L110 130.281L80.0937 151.25ZM116.187 125.812L125.469 132.344L122.031 121.688L116.187 125.812ZM97.9688 121.688L94.5312 132.344L103.813 125.812L97.9688 121.688ZM100.375 114.469L110 121.344L119.625 114.469L115.844 103.469H103.813L100.375 114.469ZM84.9063 103.469L94.1875 110L96.25 103.469H84.9063ZM125.812 110L135.094 103.469H123.75L125.812 110ZM106.562 95.9062H113.438L110 85.25L106.562 95.9062Z" fill="#4F682E"/>
</svg>
