<svg width="220" height="220" viewBox="0 0 220 220" fill="none" xmlns="http://www.w3.org/2000/svg">
<path d="M75.625 207.281V159.844L40.2188 185.969C50.1875 195.25 62.2187 202.469 75.625 207.281ZM144.375 207.281C157.781 202.469 169.812 195.25 179.781 185.969L144.375 159.5V207.281ZM12.7188 144.375C13.75 147.812 15.125 150.906 16.8438 154.344L30.25 144.375H12.7188ZM189.75 144.375L203.156 154.344C204.531 151.25 205.906 147.812 207.281 144.375H189.75Z" fill="#2A5F9E"/>
<path d="M80.7812 130.625H8.9375C9.96875 135.437 11.3438 139.906 12.7188 144.375H30.25L16.8438 154.344C19.5938 160.188 22.6875 165.344 26.4687 170.5L61.875 144.375H75.625V151.25L35.4063 180.812L40.2188 185.625L75.625 159.844V207.281C80.0937 209 84.5625 210.031 89.375 211.063V130.625H80.7812ZM211.063 130.625H130.625V211.063C135.438 210.031 139.906 208.656 144.375 207.281V159.844L179.781 185.625C184.594 181.156 188.719 176.344 192.844 171.187L156.063 144.375H179.438L200.406 159.844C201.438 158.125 202.469 156.063 203.156 154.344L189.75 144.375H207.281C208.656 139.906 210.031 135.437 211.063 130.625Z" fill="white"/>
<path d="M26.4688 170.5C29.2188 174.281 31.9688 177.719 35.0625 181.156L75.625 151.594V144.719H61.875L26.4688 170.5ZM156.406 144.375L193.188 171.187C194.563 169.469 195.594 167.75 196.969 166.031C197.312 165.687 197.312 165.344 197.656 165.344C198.687 163.625 200.062 161.562 201.094 159.844L179.438 144.375H156.406Z" fill="#ED4C5C"/>
<path d="M144.375 12.7188V60.1563L179.781 34.0312C169.812 24.75 157.781 17.5312 144.375 12.7188ZM75.625 12.7188C62.2187 17.5312 50.1875 24.75 40.2188 34.0312L75.625 60.5V12.7188ZM207.281 75.625C206.25 72.1875 204.875 69.0938 203.156 65.6563L189.75 75.625H207.281ZM30.25 75.625L16.8438 65.6563C15.4688 69.0938 14.0938 72.1875 12.7188 75.625H30.25Z" fill="#2A5F9E"/>
<path d="M139.219 89.375H210.719C209.688 84.5625 208.313 80.0937 206.938 75.625H189.406L202.813 65.6562C200.063 59.8125 196.969 54.6562 193.188 49.5L158.125 75.625H144.375V68.75L184.594 39.1875L179.781 34.375L144.375 60.1562V12.7188C139.906 11 135.438 9.96875 130.625 8.9375V89.375H139.219ZM8.9375 89.375H89.375V8.9375C84.5625 9.96875 80.0937 11.3438 75.625 12.7188V60.1562L40.2188 34.375C35.4063 38.8438 31.2813 43.6563 27.1563 48.8125L63.9375 75.625H40.5625L19.5937 60.1562C18.5625 61.875 17.5313 63.9375 16.8438 65.6562L30.25 75.625H12.7188C11.3438 80.0937 9.96875 84.5625 8.9375 89.375Z" fill="white"/>
<path d="M193.531 49.5C190.781 45.7187 188.031 42.2812 184.938 38.8438L144.375 68.4062V75.2812H158.125L193.531 49.5ZM63.5937 75.625L27.1563 48.8125C25.7813 50.5312 24.75 52.25 23.375 53.9687C23.0313 54.3125 23.0313 54.6562 22.6875 54.6562C21.6562 56.375 20.2813 58.4375 19.25 60.1562L40.2187 75.625H63.5937Z" fill="#ED4C5C"/>
<path d="M211.063 89.375H130.625V8.9375C124.094 7.5625 117.219 6.875 110 6.875C99.1719 6.875 95.9062 7.5625 89.375 8.9375V89.375H8.9375C7.5625 95.9062 6.875 102.781 6.875 110C6.875 120.828 7.5625 124.094 8.9375 130.625H89.375V211.063C95.9062 212.438 102.781 213.125 110 213.125C120.828 213.125 124.094 212.438 130.625 211.063V130.625H211.063C212.438 124.094 213.125 117.219 213.125 110C213.125 99.1719 212.438 95.9062 211.063 89.375Z" fill="#ED4C5C"/>
</svg>
