<svg width="200" height="200" viewBox="0 0 200 200" fill="none" xmlns="http://www.w3.org/2000/svg">
<path d="M164.233 52.4333C165.009 53.2074 165.625 54.127 166.045 55.1394C166.465 56.1519 166.682 57.2372 166.682 58.3333C166.682 59.4295 166.465 60.5148 166.045 61.5272C165.625 62.5397 165.009 63.4592 164.233 64.2333L89.2333 139.233C88.4592 140.009 87.5396 140.625 86.5272 141.045C85.5148 141.465 84.4294 141.682 83.3333 141.682C82.2372 141.682 81.1518 141.465 80.1394 141.045C79.127 140.625 78.2074 140.009 77.4333 139.233L44.1 105.9C42.5352 104.335 41.6561 102.213 41.6561 100C41.6561 97.7871 42.5352 95.6648 44.1 94.1C45.6648 92.5352 47.7871 91.6561 50 91.6561C52.2129 91.6561 54.3352 92.5352 55.9 94.1L83.3333 121.55L152.433 52.4333C153.207 51.6573 154.127 51.0416 155.139 50.6215C156.152 50.2014 157.237 49.9851 158.333 49.9851C159.429 49.9851 160.515 50.2014 161.527 50.6215C162.54 51.0416 163.459 51.6573 164.233 52.4333Z" fill="#FFCC00"/>
</svg>
