<svg width="200" height="200" viewBox="0 0 200 200" fill="none" xmlns="http://www.w3.org/2000/svg">
<g clip-path="url(#clip0_71_10)">
<path fill-rule="evenodd" clip-rule="evenodd" d="M99.9999 111.783L147.142 158.925C148.713 160.443 150.818 161.283 153.003 161.264C155.188 161.245 157.278 160.369 158.823 158.823C160.369 157.278 161.245 155.188 161.264 153.003C161.283 150.818 160.443 148.713 158.925 147.142L111.783 100L158.925 52.8583C160.443 51.2866 161.283 49.1816 161.264 46.9966C161.245 44.8117 160.369 42.7216 158.823 41.1765C157.278 39.6314 155.188 38.755 153.003 38.736C150.818 38.717 148.713 39.557 147.142 41.075L99.9999 88.2167L52.8583 41.075C51.2795 39.5945 49.1867 38.7864 47.0227 38.8215C44.8587 38.8566 42.7932 39.7323 41.2634 41.2633C39.7335 42.7942 38.8593 44.8603 38.8257 47.0243C38.7921 49.1884 39.6017 51.2806 41.0833 52.8583L88.2166 100L41.0749 147.142C40.279 147.91 39.6442 148.83 39.2074 149.847C38.7707 150.863 38.5408 151.957 38.5312 153.063C38.5216 154.17 38.7324 155.267 39.1514 156.291C39.5704 157.315 40.1892 158.246 40.9717 159.028C41.7541 159.811 42.6845 160.429 43.7087 160.848C44.7328 161.267 45.8301 161.478 46.9366 161.469C48.0431 161.459 49.1366 161.229 50.1533 160.792C51.17 160.356 52.0896 159.721 52.8583 158.925L99.9999 111.783Z" fill="#000080"/>
</g>
<defs>
<clipPath id="clip0_71_10">
<rect width="200" height="200" fill="white"/>
</clipPath>
</defs>
</svg>
