<svg width="200" height="200" viewBox="0 0 200 200" fill="none" xmlns="http://www.w3.org/2000/svg">
<path d="M123.333 38.4405L179.175 131.449C187.2 144.807 183.258 162.382 170.367 170.699C166.04 173.5 160.996 174.994 155.842 174.999H44.15C28.975 174.999 16.6666 162.249 16.6666 146.507C16.6666 141.182 18.1083 135.974 20.8166 131.449L76.6666 38.4405C84.6833 25.0822 101.633 20.9905 114.525 29.3072C118.092 31.6072 121.108 34.7322 123.333 38.4405ZM100 141.665C102.21 141.665 104.33 140.788 105.893 139.225C107.455 137.662 108.333 135.542 108.333 133.332C108.333 131.122 107.455 129.002 105.893 127.44C104.33 125.877 102.21 124.999 100 124.999C97.7898 124.999 95.6702 125.877 94.1074 127.44C92.5446 129.002 91.6666 131.122 91.6666 133.332C91.6666 135.542 92.5446 137.662 94.1074 139.225C95.6702 140.788 97.7898 141.665 100 141.665ZM100 66.6655C97.7898 66.6655 95.6702 67.5435 94.1074 69.1063C92.5446 70.6691 91.6666 72.7887 91.6666 74.9988V108.332C91.6666 110.542 92.5446 112.662 94.1074 114.225C95.6702 115.788 97.7898 116.665 100 116.665C102.21 116.665 104.33 115.788 105.893 114.225C107.455 112.662 108.333 110.542 108.333 108.332V74.9988C108.333 72.7887 107.455 70.6691 105.893 69.1063C104.33 67.5435 102.21 66.6655 100 66.6655Z" fill="#000080"/>
</svg>
