<svg width="200" height="160" viewBox="0 0 200 160" fill="none" xmlns="http://www.w3.org/2000/svg">
<g clip-path="url(#clip0_155_2)">
<path d="M194.481 47.875L107.313 21.0938C102.563 19.6344 97.4375 19.6344 92.6906 21.0938L5.51877 47.875C-1.83748 50.1344 -1.83748 59.8625 5.51877 62.1219L20.7157 66.7907C17.3813 70.9125 15.3313 75.9407 15.1281 81.4469C12.1188 83.1719 10 86.2844 10 90C10 93.3688 11.775 96.2032 14.3313 98.0157L6.35315 133.916C5.6594 137.038 8.0344 140 11.2313 140H28.7657C31.9657 140 34.3406 137.038 33.6469 133.916L25.6688 98.0157C28.225 96.2032 30 93.3688 30 90C30 86.3844 27.9781 83.3594 25.1063 81.6032C25.3438 76.9094 27.7438 72.7594 31.5719 70.1282L92.6875 88.9063C95.5188 89.775 100.95 90.8594 107.309 88.9063L194.481 62.1251C201.841 59.8626 201.841 50.1375 194.481 47.875ZM110.247 98.4657C101.331 101.203 93.7344 99.6907 89.75 98.4657L44.4313 84.5438L40 120C40 131.047 66.8625 140 100 140C133.138 140 160 131.047 160 120L155.569 84.5407L110.247 98.4657Z" fill="#000080"/>
</g>
<defs>
<clipPath id="clip0_155_2">
<rect width="200" height="160" fill="white"/>
</clipPath>
</defs>
</svg>
