<svg width="200" height="200" viewBox="0 0 200 200" fill="none" xmlns="http://www.w3.org/2000/svg">
<path d="M103.837 38.1944C113.359 29.6711 125.783 25.1183 138.557 25.4717C151.331 25.8251 163.485 31.0577 172.521 40.0944C181.548 49.121 186.782 61.2589 187.147 74.0201C187.513 86.7813 182.983 99.199 174.487 108.728L103.821 179.494L33.1705 108.728C24.6643 99.1941 20.1306 86.7657 20.5 73.9943C20.8694 61.2228 26.1141 49.0773 35.1572 40.0513C44.2002 31.0253 56.3556 25.8036 69.1277 25.4583C81.8999 25.113 94.3196 29.6702 103.837 38.1944ZM166.5 44.5C160.48 38.4844 147.064 34.7371 138.557 34.5C130.05 34.2629 120.846 36.462 114.5 42.133L103.837 48L93 40.0944C86.6806 34.4435 77.6027 32.7523 69.1277 32.9583C60.6528 33.1643 46.1845 40.0431 40.1472 45.9944C34.1099 51.9457 27.8277 65.8064 27.5001 74.2775C27.1725 82.7487 33.2693 97.0529 38.8289 103.453L103.846 168.953L168.5 103.453C174.036 97.0811 179.299 82.4298 179 73.9943C178.701 65.5587 172.473 50.4643 166.5 44.5Z" fill="#000080"/>
</svg>
