<svg width="220" height="220" viewBox="0 0 220 220" fill="none" xmlns="http://www.w3.org/2000/svg">
<mask id="mask0_13_14" style="mask-type:luminance" maskUnits="userSpaceOnUse" x="9" y="9" width="202" height="202">
<path d="M110 201.667C122.04 201.682 133.964 199.317 145.088 194.71C156.211 190.102 166.315 183.342 174.817 174.817C183.342 166.315 190.102 156.211 194.71 145.088C199.317 133.964 201.682 122.04 201.667 110C201.682 97.96 199.317 86.0357 194.71 74.9122C190.102 63.7888 183.342 53.6854 174.817 45.1825C166.315 36.6582 156.211 29.8981 145.088 25.2904C133.964 20.6828 122.04 18.3185 110 18.3333C97.96 18.3185 86.0357 20.6828 74.9122 25.2904C63.7888 29.8981 53.6854 36.6582 45.1825 45.1825C36.6582 53.6854 29.8981 63.7888 25.2904 74.9122C20.6828 86.0357 18.3185 97.96 18.3333 110C18.3185 122.04 20.6828 133.964 25.2904 145.088C29.8981 156.211 36.6582 166.315 45.1825 174.817C53.6854 183.342 63.7888 190.102 74.9122 194.71C86.0357 199.317 97.96 201.682 110 201.667Z" fill="white" stroke="white" stroke-width="18.3333" stroke-linejoin="round"/>
<path d="M110 131.198V112.865C115.439 112.865 120.756 111.252 125.278 108.23C129.801 105.208 133.325 100.913 135.407 95.8884C137.488 90.8634 138.033 85.3341 136.972 79.9996C135.911 74.6651 133.291 69.7651 129.445 65.9191C125.599 62.0732 120.699 59.4541 115.365 58.393C110.031 57.3319 104.501 57.8765 99.4762 59.9579C94.4512 62.0393 90.1563 65.564 87.1346 70.0864C84.1128 74.6087 82.5 79.9256 82.5 85.3646" stroke="black" stroke-width="18.3333" stroke-linecap="round" stroke-linejoin="round"/>
<path fill-rule="evenodd" clip-rule="evenodd" d="M110 172.448C113.039 172.448 115.953 171.241 118.102 169.092C120.251 166.943 121.458 164.029 121.458 160.99C121.458 157.951 120.251 155.036 118.102 152.887C115.953 150.738 113.039 149.531 110 149.531C106.961 149.531 104.047 150.738 101.898 152.887C99.7489 155.036 98.5417 157.951 98.5417 160.99C98.5417 164.029 99.7489 166.943 101.898 169.092C104.047 171.241 106.961 172.448 110 172.448Z" fill="black"/>
</mask>
<g mask="url(#mask0_13_14)">
<path d="M0 0H220V220H0V0Z" fill="#000080"/>
</g>
</svg>
