<svg width="220" height="220" viewBox="0 0 220 220" fill="none" xmlns="http://www.w3.org/2000/svg">
<path d="M91.8592 9.35916H146.859V27.6925H91.8592V9.35916ZM183.7 67.925L196.845 54.78L183.883 41.8183L170.748 54.9542C156.354 43.4223 138.509 37.0519 120.067 36.8625C101.625 36.673 83.652 42.6754 69.025 53.9092L82.0417 67.1092C92.9175 59.3861 105.919 55.2229 119.258 55.1925L119.35 55.2017V119.185L164.752 164.633C155.789 173.639 144.355 179.78 131.898 182.281C119.44 184.782 106.521 183.528 94.7772 178.679C83.0331 173.831 72.9925 165.605 65.9276 155.045C58.8627 144.485 55.0915 132.065 55.0917 119.359H82.5917L45.925 82.6925L9.25833 119.359H36.7583C36.7458 132.542 39.8928 145.536 45.9356 157.253C51.9784 168.97 60.7411 179.068 71.4895 186.701C82.238 194.334 94.6592 199.28 107.713 201.125C120.766 202.97 134.071 201.66 146.514 197.305C158.957 192.949 170.175 185.676 179.229 176.093C188.282 166.51 194.907 154.897 198.548 142.226C202.19 129.556 202.742 116.198 200.159 103.27C197.575 90.3427 191.931 78.2225 183.7 67.925Z" fill="#000080"/>
</svg>
