<svg width="200" height="200" viewBox="0 0 200 200" fill="none" xmlns="http://www.w3.org/2000/svg">
<rect width="200" height="200" rx="100" fill="#000080"/>
<path fill-rule="evenodd" clip-rule="evenodd" d="M170.833 120.267V79.7333C170.833 60.6167 170.833 51.0667 164.817 45.125C159.358 39.7333 150.867 39.2417 134.85 39.1917C135.692 44.8167 135.867 51.525 135.917 59.425C135.917 60.229 135.758 61.025 135.45 61.7677C135.142 62.5103 134.691 63.185 134.122 63.7531C133.553 64.3212 132.878 64.7716 132.135 65.0785C131.392 65.3854 130.596 65.5428 129.792 65.5417C128.987 65.5516 128.189 65.4029 127.442 65.1043C126.695 64.8056 126.014 64.3627 125.439 63.8009C124.863 63.2391 124.403 62.5693 124.086 61.83C123.77 61.0906 123.601 60.296 123.592 59.4917C123.542 50.625 123.317 44.3417 122.425 39.575C121.567 34.975 120.2 32.325 118.2 30.3417C115.925 28.0917 112.733 26.6333 106.7 25.8417C100.5 25.0083 92.2833 25 80.4917 25H72.2833C60.4917 25 52.275 25.0167 46.0667 25.8333C40.0417 26.6333 36.85 28.1 34.5833 30.3417C32.3083 32.5917 30.825 35.7417 30.0166 41.6917C29.1833 47.8083 29.1667 55.9333 29.1667 67.5667V132.433C29.1667 144.075 29.1833 152.183 30.0166 158.308C30.825 164.258 32.3083 167.417 34.575 169.658C36.85 171.908 40.0416 173.367 46.075 174.158C52.2666 175 60.4833 175 72.275 175H80.4833C92.275 175 100.492 174.983 106.7 174.167C112.725 173.367 115.917 171.9 118.192 169.658C120.192 167.683 121.558 165.025 122.417 160.425C123.308 155.658 123.533 149.375 123.583 140.508C123.593 139.704 123.761 138.909 124.078 138.17C124.395 137.431 124.854 136.761 125.43 136.199C126.006 135.637 126.687 135.194 127.434 134.896C128.181 134.597 128.979 134.448 129.783 134.458C130.587 134.457 131.384 134.615 132.127 134.922C132.87 135.228 133.545 135.679 134.114 136.247C134.683 136.815 135.134 137.49 135.442 138.232C135.75 138.975 135.908 139.771 135.908 140.575C135.858 148.475 135.683 155.183 134.842 160.808C150.858 160.758 159.342 160.267 164.808 154.875C170.825 148.933 170.833 139.375 170.833 120.267ZM150.542 95.7C151.113 96.2609 151.567 96.93 151.877 97.6683C152.187 98.4066 152.346 99.1993 152.346 100C152.346 100.801 152.187 101.593 151.877 102.332C151.567 103.07 151.113 103.739 150.542 104.3L134.125 120.517C132.962 121.66 131.397 122.3 129.767 122.3C128.136 122.3 126.571 121.66 125.408 120.517C124.837 119.956 124.383 119.287 124.073 118.548C123.763 117.81 123.604 117.017 123.604 116.217C123.604 115.416 123.763 114.623 124.073 113.885C124.383 113.147 124.837 112.478 125.408 111.917L131.325 106.083L72.275 106.083C68.875 106.083 66.1083 103.358 66.1083 100C66.1083 96.6417 68.875 93.9167 72.275 93.9167L131.333 93.9167L125.417 88.0833C124.845 87.5225 124.391 86.8533 124.081 86.115C123.772 85.3767 123.612 84.584 123.612 83.7833C123.612 82.9826 123.772 82.19 124.081 81.4517C124.391 80.7133 124.845 80.0442 125.417 79.4833C126.579 78.3403 128.145 77.6997 129.775 77.6997C131.405 77.6997 132.971 78.3403 134.133 79.4833L150.542 95.7Z" fill="white"/>
</svg>
