<svg width="100" height="100" viewBox="0 0 100 100" fill="none" xmlns="http://www.w3.org/2000/svg">
<path fill-rule="evenodd" clip-rule="evenodd" d="M9.77084 9.35418C10.3928 8.8139 11.1609 8.47012 11.9782 8.36629C12.7955 8.26247 13.6252 8.40325 14.3625 8.77085L89.3625 46.2708C90.0559 46.6164 90.6392 47.1485 91.0469 47.8072C91.4546 48.4659 91.6706 49.2253 91.6706 50C91.6706 50.7747 91.4546 51.5341 91.0469 52.1928C90.6392 52.8516 90.0559 53.3836 89.3625 53.7292L14.3625 91.2292C13.6253 91.5981 12.7952 91.74 11.9773 91.6369C11.1594 91.5339 10.3904 91.1906 9.76769 90.6504C9.14497 90.1102 8.69649 89.3974 8.47899 88.6023C8.26149 87.8071 8.28476 86.9653 8.54584 86.1834L19.2208 54.1667H41.6667C42.7717 54.1667 43.8315 53.7277 44.6129 52.9463C45.3943 52.1649 45.8333 51.1051 45.8333 50C45.8333 48.8949 45.3943 47.8351 44.6129 47.0537C43.8315 46.2723 42.7717 45.8333 41.6667 45.8333H19.2208L8.54167 13.8167C8.28194 13.0351 8.25968 12.194 8.47771 11.3997C8.69575 10.6055 9.14845 9.89365 9.77084 9.35418Z" fill="white"/>
</svg>
