<svg width="200" height="200" viewBox="0 0 200 200" fill="none" xmlns="http://www.w3.org/2000/svg">
<path d="M30.3082 28.6167L103.142 100.042L30.8499 172.125C29.6701 170.583 28.7523 168.857 28.1332 167.017C27.8081 164.932 27.8081 162.81 28.1332 160.725V38.0583C27.9166 34.7667 28.6749 31.475 30.2999 28.6167M134.517 68.8917L110.742 92.4417L38.7749 21.6667C41.1082 20.8583 43.6082 20.6333 46.0499 21.0167C49.8832 22.0667 53.5416 23.6833 56.8999 25.7917L122.033 61.8333C126.267 64.1083 130.392 66.5 134.517 68.8917ZM110.75 107.75L134.408 130.983L117.258 140.533L64.9332 169.617C60.5999 172.008 56.2499 174.292 52.0166 176.9C50.2055 178.029 48.1743 178.758 46.0588 179.038C43.9433 179.318 41.7923 179.143 39.7499 178.525L110.75 107.75ZM172.083 100.042C172.149 102.956 171.414 105.834 169.96 108.36C168.505 110.887 166.386 112.967 163.833 114.375L144.283 125.225L118.558 100.042L144.392 74.425C151.017 78.1167 157.533 81.8083 164.042 85.2833C166.639 86.7326 168.772 88.8882 170.193 91.5003C171.615 94.1124 172.276 97.0739 172.083 100.042Z" fill="#000080"/>
</svg>
