<svg width="200" height="200" viewBox="0 0 200 200" fill="none" xmlns="http://www.w3.org/2000/svg">
<path fill-rule="evenodd" clip-rule="evenodd" d="M108.333 108.333V166.667C108.333 168.877 107.455 170.996 105.893 172.559C104.33 174.122 102.21 175 100 175C97.7899 175 95.6702 174.122 94.1074 172.559C92.5446 170.996 91.6667 168.877 91.6667 166.667V108.333H33.3333C31.1232 108.333 29.0036 107.455 27.4408 105.893C25.878 104.33 25 102.21 25 100C25 97.7899 25.878 95.6702 27.4408 94.1074C29.0036 92.5446 31.1232 91.6667 33.3333 91.6667H91.6667V33.3333C91.6667 31.1232 92.5446 29.0036 94.1074 27.4408C95.6702 25.878 97.7899 25 100 25C102.21 25 104.33 25.878 105.893 27.4408C107.455 29.0036 108.333 31.1232 108.333 33.3333V91.6667H166.667C168.877 91.6667 170.996 92.5446 172.559 94.1074C174.122 95.6702 175 97.7899 175 100C175 102.21 174.122 104.33 172.559 105.893C170.996 107.455 168.877 108.333 166.667 108.333H108.333Z" fill="#000080"/>
</svg>
