<svg width="200" height="200" viewBox="0 0 200 200" fill="none" xmlns="http://www.w3.org/2000/svg">
<rect width="200" height="200" rx="100" fill="#000080"/>
<g clip-path="url(#clip0_112_10)">
<path d="M125 116.667C102.75 116.667 61.1666 122.5 54.5 150L46 183.5C58 197 89.5 200.5 101.43 200L111 199.5L118.5 198.5L122 197.5L125 197L137 193L148 188L155 183.5L170.5 171.5L181 160.5L186.5 150C179.5 125 147.25 116.667 125 116.667ZM50 83.3334V58.3334H33.3334V83.3334H8.33337V100H33.3334V125H50V100H75V83.3334M125 100C133.841 100 142.319 96.4881 148.57 90.2369C154.821 83.9857 158.333 75.5073 158.333 66.6667C158.333 57.8262 154.821 49.3477 148.57 43.0965C142.319 36.8453 133.841 33.3334 125 33.3334C116.159 33.3334 107.681 36.8453 101.43 43.0965C95.1786 49.3477 91.6667 57.8262 91.6667 66.6667C91.6667 75.5073 95.1786 83.9857 101.43 90.2369C107.681 96.4881 116.159 100 125 100Z" fill="white"/>
</g>
<defs>
<clipPath id="clip0_112_10">
<rect width="200" height="200" fill="white"/>
</clipPath>
</defs>
</svg>
