<svg width="200" height="200" viewBox="0 0 200 200" fill="none" xmlns="http://www.w3.org/2000/svg">
<g clip-path="url(#clip0_117_10)">
<path d="M100 16.6666C146.025 16.6666 183.333 53.975 183.333 100C183.333 146.025 146.025 183.333 100 183.333C53.9751 183.333 16.6667 146.025 16.6667 100C16.6667 53.975 53.9751 16.6666 100 16.6666ZM100 33.3333C82.319 33.3333 65.3621 40.3571 52.8596 52.8595C40.3572 65.3619 33.3334 82.3189 33.3334 100C33.3334 117.681 40.3572 134.638 52.8596 147.14C65.3621 159.643 82.319 166.667 100 166.667C117.681 166.667 134.638 159.643 147.141 147.14C159.643 134.638 166.667 117.681 166.667 100C166.667 82.3189 159.643 65.3619 147.141 52.8595C134.638 40.3571 117.681 33.3333 100 33.3333ZM100 50C102.041 50.0002 104.011 50.7496 105.537 52.1059C107.062 53.4622 108.036 55.3312 108.275 57.3583L108.333 58.3333V96.55L130.892 119.108C132.386 120.608 133.254 122.62 133.319 124.736C133.383 126.853 132.64 128.914 131.24 130.502C129.839 132.09 127.887 133.086 125.779 133.287C123.672 133.487 121.567 132.878 119.892 131.583L119.108 130.892L94.1084 105.892C92.8132 104.595 91.9814 102.908 91.7417 101.092L91.6667 100V58.3333C91.6667 56.1232 92.5447 54.0035 94.1075 52.4407C95.6703 50.8779 97.7899 50 100 50Z" fill="#000080"/>
</g>
<defs>
<clipPath id="clip0_117_10">
<rect width="200" height="200" fill="white"/>
</clipPath>
</defs>
</svg>
