<svg width="200" height="200" viewBox="0 0 200 200" fill="none" xmlns="http://www.w3.org/2000/svg">
<rect width="200" height="200" rx="100" fill="#000080"/>
<path d="M99.6667 25C90.8261 25 82.3477 28.5119 76.0964 34.7631C69.8452 41.0143 66.3333 49.4928 66.3333 58.3333C66.3333 67.1739 69.8452 75.6524 76.0964 81.9036C82.3477 88.1548 90.8261 91.6667 99.6667 91.6667C108.507 91.6667 116.986 88.1548 123.237 81.9036C129.488 75.6524 133 67.1739 133 58.3333C133 49.4928 129.488 41.0143 123.237 34.7631C116.986 28.5119 108.507 25 99.6667 25ZM141.333 108.333H58C51.3696 108.333 45.0107 110.967 40.3223 115.656C35.6339 120.344 33 126.703 33 133.333C33 151.933 40.65 166.833 53.2 176.917C65.55 186.833 82.1167 191.667 99.6667 191.667C117.217 191.667 133.783 186.833 146.133 176.917C158.667 166.833 166.333 151.933 166.333 133.333C166.333 126.703 163.699 120.344 159.011 115.656C154.323 110.967 147.964 108.333 141.333 108.333Z" fill="white"/>
</svg>
